<svg width="324" height="434" viewBox="0 0 324 434" fill="none" xmlns="http://www.w3.org/2000/svg">
<g clip-path="url(#clip0_34_3837)">
<rect x="1.5" y="1.5" width="321" height="431" rx="40.5" fill="black" fill-opacity="0.38" stroke="white" stroke-width="3"/>
<path d="M177.437 165.773C173.314 165.431 162.656 158.91 153.043 159.278C154.647 161.101 158.953 165.294 163.351 167.482C167.748 169.67 171.597 170.9 172.971 171.242C175.252 169.54 179.568 167.602 181.442 170.9C184.072 171.242 190.493 172.609 198.396 176.369C199.711 176.995 200.91 177.819 201.993 178.762C205.146 176.028 205.032 171.698 204.58 169.875C205.84 170.217 209.047 170.49 211.795 168.849C214.544 167.208 214.544 163.38 214.2 161.671C221.759 162.354 226.66 159.419 226.913 157.911C227.256 155.86 221.416 147.656 216.262 148.339C212.139 148.886 211.566 155.86 211.795 159.278C210.421 158.594 206.985 157.716 204.237 159.672C201.488 161.628 201.488 165.01 201.832 166.456C201.144 165.203 198.877 163.106 195.304 164.747C191.73 166.388 190.379 169.533 190.15 170.9C188.776 166.525 183.081 163.608 180.406 162.696C180.406 164.829 179.911 165.978 177.437 165.773Z" fill="white"/>
<path d="M79.5174 160.303C83.0906 156.475 90.6264 154.378 93.9477 153.809C115.112 152.168 118.8 164.519 117.998 170.9C118.65 171.224 119.543 171.651 120.393 172.267C120.783 171.3 121.134 170.004 121.312 168.507C121.869 163.837 120.744 157.204 113.875 152.441C104.805 146.152 97.7269 146.63 95.3218 147.656C90.5117 143.326 79.1048 136.444 71.9584 143.554C63.0253 152.441 66.9025 158.936 74.7559 167.824C75.9543 165.116 77.6776 162.275 79.5174 160.303Z" fill="white"/>
<path d="M40.6922 180.13C31.1865 177.395 9.63259 171.789 -0.53737 171.242C-9.81402 165.773 -28.8483 155.108 -30.7724 156.201C-33.1774 157.569 -33.1774 160.987 -20.1214 169.875C-21.9537 171.926 -25.687 176.438 -25.9619 178.079C-26.2367 179.719 -25.3892 180.813 -24.9311 181.155C-25.6183 180.927 -26.9926 180.882 -26.9926 182.522C-26.9926 184.163 -24.7021 185.941 -23.5568 186.624C-24.244 186.966 -25.4808 187.923 -24.9311 189.017C-24.244 190.384 -22.1825 190.726 -15.6545 189.017C-10.432 187.65 -5.9197 187.992 -4.31633 188.333C5.76201 192.891 28.255 202.485 37.6004 204.399C46.9915 210.552 67.1481 223.2 72.6455 224.567L76.0813 225.935C75.9668 238.582 76.6998 265.519 80.5479 272.082C81.3496 275.044 88.7251 280.764 111.814 279.944C128.305 279.358 132.085 278.235 135.747 276.184C135.966 272.037 137.926 264.346 137.926 258.409C137.926 250.547 137.926 250.547 131.741 225.935C128.218 211.913 121.814 201.972 116.723 196.196C117.352 206.22 115.225 219.964 114.082 225.582C117.226 226.582 117.247 230.653 117.998 234.139C119.029 238.924 118.685 245.761 114.906 245.761C111.126 245.761 109.752 247.128 104.942 247.812C101.094 248.359 96.9252 248.04 95.3218 247.812C93.6039 250.547 88.7934 251.23 85.4944 249.521C82.1954 247.812 85.4944 242.001 83.6401 237.726C82.1567 234.307 82.3348 230.087 82.6094 228.404C80.3673 220.201 82.3006 206.107 84.2329 196.741C81.7914 199.694 79.1412 203.098 76.7681 204.159C76.5392 206.29 75.8163 211.099 74.7559 213.287C73.4305 216.022 71.2712 214.654 68.5226 216.022C65.7739 217.389 63.7125 218.756 62.3381 217.913C61.2387 217.239 61.88 215.46 62.3381 214.654C61.88 215.224 60.5515 216.158 58.9024 215.338C57.2532 214.518 57.528 212.49 57.8716 211.578C57.299 212.148 55.8788 212.945 54.7794 211.578C53.6799 210.211 54.3213 208.274 54.7794 207.476C54.4358 208.046 53.4051 208.57 52.0308 206.109C50.6564 203.647 58.6494 195.947 62.8177 192.405C62.6266 191.997 62.4654 191.606 62.3381 191.239C61.8104 189.716 62.7519 187.591 64.3649 185.349C54.6383 182.784 45.2402 180.554 40.6922 180.13Z" fill="white"/>
<path d="M216.605 261.827C216.331 262.1 211.681 264.448 209.39 265.587L207.672 267.638C207.051 268.664 205.907 271.467 206.298 274.475C206.661 276.011 206.274 275.404 207.068 277.459C210.164 285.462 217.584 298.62 228.101 302.136C228.501 302.269 228.907 302.392 229.318 302.505C237.839 304.419 247.07 297.833 250.62 294.301C251.307 292.25 251.994 287.259 249.246 283.704C245.81 279.26 233.784 262.511 216.605 261.827Z" fill="white"/>
<path d="M141.686 186.283C141.352 186.066 141.015 185.838 140.674 185.599C138.836 184.308 137.565 182.586 136.705 180.813C136.883 187.194 138.888 202.895 145.484 214.654C153.73 229.353 160.258 241.317 170.909 252.256C181.56 263.194 198.396 273.449 206.298 274.475C205.907 271.467 207.051 268.664 207.672 267.638C199.426 266.613 182.935 256.016 172.627 246.445C153.662 226.482 144.097 198.019 141.686 186.283Z" fill="white"/>
<path d="M233.784 238.583C233.974 238.331 234.205 238.041 234.472 237.726C235.738 236.228 237.803 234.159 239.969 232.942C231.247 230.72 212.4 225.32 206.787 221.491C207.064 223.569 207.37 225.942 207.672 228.404C212.139 233.609 226.913 237.726 228.631 237.91C232.264 236.061 233.584 237.487 233.784 238.583Z" fill="white"/>
<path fill-rule="evenodd" clip-rule="evenodd" d="M219.011 248.496C218.695 249.752 220.411 255.919 219.089 257.97C220.092 257.115 222.27 256.222 225.539 257.383C230.349 259.092 247.528 268.664 253.025 279.944C254.107 282.451 256.222 287.943 256.023 289.857C256.241 289.31 256.386 288.826 256.461 288.49C260.859 284.114 266.31 274.817 268.486 270.715C269.173 260.118 261.958 249.521 253.025 244.052C245.878 239.676 236.762 240.178 233.097 240.975L233.784 238.583C233.584 237.487 232.264 236.061 228.631 237.91C228.107 238.177 227.536 238.511 226.913 238.924C220.728 243.026 219.354 247.128 219.011 248.496ZM226.226 244.052C222.652 246.513 223.363 251.23 224.164 253.281C224.851 252.598 226.707 250.683 228.631 248.496C230.555 246.308 231.494 244.622 231.723 244.052C231.379 243.026 229.799 241.591 226.226 244.052Z" fill="white"/>
<path d="M264.363 235.506C257.148 230.379 246.153 231.062 242.03 232.088C241.348 232.258 240.653 232.557 239.969 232.942C237.803 234.159 235.738 236.228 234.472 237.726C241 237.169 246.497 236.873 257.835 242.684C266.906 247.333 271.464 257.383 272.609 261.827C272.953 260.688 273.708 257.383 273.983 253.281C274.327 248.154 271.578 240.634 264.363 235.506Z" fill="white"/>
<path fill-rule="evenodd" clip-rule="evenodd" d="M243.405 143.212C242.718 142.528 241.549 140.819 242.374 139.452C243.199 138.084 244.55 137.743 245.123 137.743C244.435 137.173 243.336 135.692 244.435 134.324C245.535 132.957 250.391 134.21 252.681 135.008C253.369 133.755 253.918 130.838 250.62 129.197C246.497 127.146 244.435 127.83 244.435 124.753C245.196 124.488 246.292 124.211 247.528 124.059C243.977 122.353 235.434 118.463 229.661 116.549C223.889 114.635 221.759 115.752 221.416 116.549C219.011 121.335 214.338 131.385 214.888 133.299C215.437 135.213 232.47 142.072 240.918 145.263C241.491 143.849 242.744 143.306 243.405 143.212ZM222.446 133.299C221.416 132.957 220.728 131.59 221.759 130.222C222.446 129.539 223.477 129.539 224.164 129.881C224.851 130.222 225.195 131.248 224.851 132.273C224.508 133.299 223.477 133.641 222.446 133.299ZM224.508 128.171C223.821 127.83 223.704 126.578 224.164 126.12C224.508 125.779 225.195 125.437 225.882 125.779C226.569 126.12 226.913 127.146 226.569 127.83C226.226 128.513 225.195 128.513 224.508 128.171Z" fill="white"/>
<path d="M111.814 196.196C111.126 198.019 107.416 201.597 98.0704 201.323L93.2599 193.119C91.8983 192.953 90.6411 192.711 89.4809 192.405C85.9075 199.764 85.9306 217.732 86.3887 225.797L92.2296 225.409C92.8788 224.497 94.5324 223.689 98.0704 223.542C104.667 223.269 105.4 225.023 104.942 225.935H109.065C109.552 225.789 110.01 225.672 110.439 225.582C112.913 218.737 112.386 203.139 111.814 196.196Z" fill="white"/>
<path d="M101.163 231.404C105.286 231.404 107.691 234.139 107.691 235.848C107.691 237.757 107.691 240.975 102.881 241.317C98.0704 241.659 96.6961 237.899 96.6961 236.532C96.6961 234.139 98.0704 231.404 101.163 231.404Z" fill="white"/>
<path d="M134.146 163.722C133.047 164.542 132.543 168.393 132.428 170.216C131.741 172.609 132.772 174.318 134.146 174.318C134.623 174.318 134.852 174.071 135.076 173.635C135.499 172.813 135.906 171.319 137.926 169.533C140.399 167.345 146.057 162.047 148.577 159.672C142.064 160.578 137.446 162.69 134.146 163.722Z" fill="white"/>
<path d="M182.247 173.635C183.278 182.181 176.407 182.522 172.627 180.813C172.513 181.725 171.734 183.821 169.535 184.915C169.813 184.961 170.292 185.104 170.909 185.384C171.821 185.797 173.034 186.509 174.345 187.65C176.178 187.536 180.461 187.923 182.935 190.384C185.408 192.846 186.027 194.486 188.088 196.537C189.064 197.508 190.904 198.805 192.211 198.459C197.317 197.107 204.444 194.636 208.36 191.349C208.734 191.035 209.047 189.53 208.703 188.334C208.016 185.941 207.285 184.945 204.874 181.839C204.026 180.747 203.066 179.696 201.993 178.762C200.91 177.819 199.711 176.995 198.396 176.369C190.493 172.609 184.072 171.242 181.442 170.9C181.826 171.576 182.107 172.472 182.247 173.635Z" fill="white"/>
<path d="M202.519 331.218C204.351 332.13 208.029 327.458 208.029 327.458C208.029 327.458 214.806 320.527 218.667 315.681C222.685 310.638 228.101 302.136 228.101 302.136C217.584 298.62 210.164 285.462 207.068 277.459C184.794 281.834 150.867 281.083 136.208 278.918C129.336 290.199 115.662 313.101 115.937 314.469C116.211 315.836 117.425 316.862 117.998 317.203L145.141 337.03C147.546 339.422 151.325 340.79 155.448 336.004C159.571 331.218 172.971 317.545 177.781 317.203C182.591 316.862 187.401 322.331 192.211 325.407C196.059 327.869 200.686 330.307 202.519 331.218Z" fill="white"/>
<path d="M45.1592 352.412C38.9747 359.59 26.4684 374.357 25.9187 375.998C25.2315 378.049 23.8572 380.442 28.3237 380.1C32.7903 379.758 69.2097 363.009 70.9276 360.274C72.302 358.086 68.7516 350.247 66.8047 346.601L45.1592 352.412Z" fill="white"/>
<path d="M77.4557 391.381C76.3104 392.064 72.5768 393.568 66.8047 394.115C59.5895 394.799 49.9693 393.773 46.8771 396.166C43.7848 398.559 51.6872 401.635 57.8716 404.028C62.8192 405.942 69.7824 408.472 72.6455 409.497C72.8291 409.609 73.02 409.723 73.2177 409.839C79.0338 408.036 88.831 402.855 95.2151 399.24L77.4557 391.381Z" fill="white"/>
<path d="M74.0201 175.686C76.219 176.233 76.7683 174.546 76.7681 173.635C75.8449 178.737 77.2368 188.794 88.7934 192.213M74.0201 175.686C72.4036 175.284 73.0449 171.69 74.7559 167.824M74.0201 175.686C71.2686 177.862 66.9526 181.754 64.3649 185.349M88.7934 192.213C87.7847 191.912 86.6791 191.586 85.4944 191.239M88.7934 192.213C89.0187 192.279 89.2478 192.343 89.4809 192.405M88.7934 192.213C87.4744 192.914 85.9024 194.722 84.2329 196.741M80.5479 272.082C76.6998 265.519 75.9668 238.582 76.0813 225.935L72.6455 224.567C67.1481 223.2 46.9915 210.552 37.6004 204.399C28.255 202.485 5.76201 192.891 -4.31633 188.333C-5.9197 187.992 -10.432 187.65 -15.6545 189.017C-22.1825 190.726 -24.244 190.384 -24.9311 189.017C-25.4808 187.923 -24.244 186.966 -23.5568 186.624C-24.7021 185.941 -26.9926 184.163 -26.9926 182.522C-26.9926 180.882 -25.6183 180.927 -24.9311 181.155C-25.3892 180.813 -26.2367 179.719 -25.9619 178.079C-25.687 176.438 -21.9537 171.926 -20.1214 169.875C-33.1774 160.987 -33.1774 157.569 -30.7724 156.201C-28.8483 155.108 -9.81402 165.773 -0.53737 171.242C9.63259 171.789 31.1865 177.395 40.6922 180.13C45.2402 180.554 54.6383 182.784 64.3649 185.349M80.5479 272.082C70.0114 274.816 47.0832 283.636 39.6619 297.035C30.3852 313.785 36.5697 330.535 41.7234 344.208L45.1592 352.412M80.5479 272.082C81.3496 275.044 88.7251 280.764 111.814 279.944C128.305 279.358 132.085 278.235 135.747 276.184M45.1592 352.412C38.9747 359.59 26.4684 374.357 25.9187 375.998C25.2315 378.049 23.8572 380.442 28.3237 380.1C32.7903 379.758 69.2097 363.009 70.9276 360.274C72.302 358.086 68.7516 350.247 66.8047 346.601M45.1592 352.412L66.8047 346.601M66.8047 346.601L65.0868 341.815L67.8354 340.79C64.3996 335.434 59.0398 323.014 65.0868 316.178C71.1338 309.341 92.3441 305.809 102.193 304.898L77.4557 384.886L79.5171 386.253L77.4557 391.381M77.4557 391.381C76.3104 392.064 72.5768 393.568 66.8047 394.115C59.5895 394.799 49.9693 393.773 46.8771 396.166C43.7848 398.559 51.6872 401.635 57.8716 404.028C62.8192 405.942 69.7824 408.472 72.6455 409.497C72.8291 409.609 73.02 409.723 73.2177 409.839M77.4557 391.381L95.2151 399.24M111.814 196.196C111.126 198.019 107.416 201.597 98.0704 201.323L93.2599 193.119C91.8983 192.953 90.6411 192.711 89.4809 192.405M111.814 196.196L111.47 191.239M111.814 196.196C112.386 203.139 112.913 218.737 110.439 225.582M120.393 172.267C122.232 173.599 123.874 175.815 122.465 179.788C120.815 184.437 116.051 184.004 113.875 183.206L111.126 186.283L111.47 191.239M120.393 172.267C119.543 171.651 118.65 171.224 117.998 170.9C118.8 164.519 115.112 152.168 93.9477 153.809C90.6264 154.378 83.0906 156.475 79.5174 160.303C77.6776 162.275 75.9543 165.116 74.7559 167.824M120.393 172.267C120.783 171.3 121.134 170.004 121.312 168.507M74.7559 167.824C66.9025 158.936 63.0253 152.441 71.9584 143.554C79.1048 136.444 90.5117 143.326 95.3218 147.656C97.7269 146.63 104.805 146.152 113.875 152.441C120.744 157.204 121.869 163.837 121.312 168.507M121.312 168.507L132.428 170.216M132.428 170.216C132.543 168.393 133.047 164.542 134.146 163.722M132.428 170.216C131.741 172.609 132.772 174.318 134.146 174.318C134.623 174.318 134.852 174.071 135.076 173.635M134.146 163.722C133.459 163.722 132.222 163.243 132.772 161.329C133.459 158.936 139.644 148.339 146.515 146.63C153.387 144.921 156.479 145.947 160.602 144.237C164.725 142.528 167.474 140.819 170.909 142.528C174.345 144.237 180.186 151.758 180.186 157.227C180.186 159.415 180.406 161.274 180.406 162.696M134.146 163.722C137.446 162.69 142.064 160.578 148.577 159.672M153.043 159.278C162.656 158.91 173.314 165.431 177.437 165.773C179.911 165.978 180.406 164.829 180.406 162.696M153.043 159.278C151.463 159.338 149.976 159.477 148.577 159.672M153.043 159.278C154.647 161.101 158.953 165.294 163.351 167.482C167.748 169.67 171.597 170.9 172.971 171.242C175.252 169.54 179.568 167.602 181.442 170.9M148.577 159.672C146.057 162.047 140.399 167.345 137.926 169.533C135.906 171.319 135.499 172.813 135.076 173.635M181.442 170.9C181.826 171.576 182.107 172.472 182.247 173.635C183.278 182.181 176.407 182.522 172.627 180.813C172.513 181.725 171.734 183.821 169.535 184.915C169.813 184.961 170.292 185.104 170.909 185.384M181.442 170.9C184.072 171.242 190.493 172.609 198.396 176.369C199.711 176.995 200.91 177.819 201.993 178.762M135.076 173.635C135.027 175.224 135.378 178.08 136.705 180.813M170.909 185.384C171.821 185.797 173.034 186.509 174.345 187.65C176.178 187.536 180.461 187.923 182.935 190.384C185.408 192.846 186.027 194.486 188.088 196.537C189.064 197.508 190.904 198.805 192.211 198.459M170.909 185.384C171.597 186.255 172.627 191.068 171.253 194.486C169.879 197.905 159.571 199.614 157.166 199.272C155.242 198.999 153.616 193.233 153.043 190.384C151.426 190.384 147.066 189.778 141.686 186.283M204.874 181.839C207.285 184.945 208.016 185.941 208.703 188.334C209.047 189.53 208.734 191.035 208.36 191.349M204.874 181.839C213.022 180.471 230.349 177.805 234.472 178.079C236.877 173.065 242.855 161.602 247.528 155.86M204.874 181.839C204.026 180.747 203.066 179.696 201.993 178.762M247.528 155.86C245.123 153.581 240.381 148.476 240.656 146.288C240.704 145.904 240.796 145.564 240.918 145.263M247.528 155.86C250.162 154.72 257.148 153.33 264.019 156.885M264.019 156.885L265.05 155.176C266.425 150.39 262.989 141.161 261.271 137.743C259.553 134.324 258.866 129.197 255.086 125.779C253.067 123.952 250.014 123.752 247.528 124.059M264.019 156.885C263.447 168.507 260.652 193.666 254.056 201.323C248.071 208.27 222.025 214.804 206.298 217.913M201.832 218.756C203.191 218.513 204.691 218.231 206.298 217.913M240.918 145.263C241.491 143.849 242.744 143.306 243.405 143.212C242.718 142.528 241.549 140.819 242.374 139.452C243.199 138.084 244.55 137.743 245.123 137.743C244.435 137.173 243.336 135.692 244.435 134.324C245.535 132.957 250.391 134.21 252.681 135.008C253.369 133.755 253.918 130.838 250.62 129.197C246.497 127.146 244.435 127.83 244.435 124.753C245.196 124.488 246.292 124.211 247.528 124.059M240.918 145.263C232.47 142.072 215.437 135.213 214.888 133.299C214.338 131.385 219.011 121.335 221.416 116.549C221.759 115.752 223.889 114.635 229.661 116.549C235.434 118.463 243.977 122.353 247.528 124.059M206.298 217.913C206.443 218.949 206.609 220.16 206.787 221.491M209.39 265.587C209.39 261.827 209.39 252.871 209.39 247.128C209.39 243.459 208.549 235.552 207.672 228.404M209.39 265.587C211.681 264.448 216.331 262.1 216.605 261.827M209.39 265.587L207.672 267.638M216.605 261.827C216.949 261.485 216.605 259.776 218.667 258.409M216.605 261.827C233.784 262.511 245.81 279.26 249.246 283.704C251.994 287.259 251.307 292.25 250.62 294.301M218.667 258.409C218.77 258.271 218.911 258.121 219.089 257.97M218.667 258.409C218.833 258.298 218.973 258.15 219.089 257.97M233.784 238.583L233.097 240.975C236.762 240.178 245.878 239.676 253.025 244.052C261.958 249.521 269.173 260.118 268.486 270.715M233.784 238.583C233.974 238.331 234.205 238.041 234.472 237.726M233.784 238.583C233.584 237.487 232.264 236.061 228.631 237.91M272.609 261.827C272.953 260.688 273.708 257.383 273.983 253.281C274.327 248.154 271.578 240.634 264.363 235.506C257.148 230.379 246.153 231.062 242.03 232.088C241.348 232.258 240.653 232.557 239.969 232.942M272.609 261.827C272.953 263.08 273.227 266.202 271.578 268.664C269.929 271.125 268.83 271.056 268.486 270.715M272.609 261.827C271.464 257.383 266.906 247.333 257.835 242.684C246.497 236.873 241 237.169 234.472 237.726M268.486 270.715C266.31 274.817 260.859 284.114 256.461 288.49C256.386 288.826 256.241 289.31 256.023 289.857M250.62 294.301C250.963 294.529 252.063 294.643 253.712 293.275C254.82 292.357 255.576 290.976 256.023 289.857M250.62 294.301C247.07 297.833 237.839 304.419 229.318 302.505M229.318 302.505C236.877 306.493 253.506 314.879 259.553 316.52C265.6 318.161 283.374 322.901 291.506 325.066C293.796 324.04 299.614 323.083 304.562 327.458C304.791 332.928 305.18 345.233 304.905 350.703C304.562 357.539 304.905 375.998 301.47 376.682C298.034 377.366 292.88 358.223 289.444 354.121C286.696 350.839 286.009 348.196 286.009 347.284C276.503 347.057 254.674 345.986 243.405 343.524C229.318 340.448 215.588 336.346 208.029 327.458M229.318 302.505C228.907 302.392 228.501 302.269 228.101 302.136M208.029 327.458C208.029 327.458 204.351 332.13 202.519 331.218C200.686 330.307 196.059 327.869 192.211 325.407C187.401 322.331 182.591 316.862 177.781 317.203C172.971 317.545 159.571 331.218 155.448 336.004C151.325 340.79 147.546 339.422 145.141 337.03M208.029 327.458C208.029 327.458 214.806 320.527 218.667 315.681C222.685 310.638 228.101 302.136 228.101 302.136M145.141 337.03C141.591 341.815 133.39 354.873 128.993 368.82C124.595 382.766 121.892 396.736 121.09 401.977C121.663 402.205 122.739 403.413 122.465 406.421C122.121 410.181 122.121 415.65 118.342 416.334C115.318 416.881 84.3272 415.878 69.2097 415.309C68.6371 414.739 67.8354 413.258 69.2097 411.89C70.5841 410.523 72.4544 409.953 73.2177 409.839M145.141 337.03L117.998 317.203M73.2177 409.839C79.0338 408.036 88.831 402.855 95.2151 399.24M180.406 162.696C183.081 163.608 188.776 166.525 190.15 170.9C190.379 169.533 191.73 166.388 195.304 164.747C198.877 163.106 201.144 165.203 201.832 166.456C201.488 165.01 201.488 161.628 204.237 159.672C206.985 157.716 210.421 158.594 211.795 159.278C211.566 155.86 212.139 148.886 216.262 148.339C221.416 147.656 227.256 155.86 226.913 157.911C226.66 159.419 221.759 162.354 214.2 161.671C214.544 163.38 214.544 167.208 211.795 168.849C209.047 170.49 205.84 170.217 204.58 169.875C205.032 171.698 205.146 176.028 201.993 178.762M111.47 191.239C112.822 192.207 114.665 193.861 116.723 196.196M136.208 278.918C129.336 290.199 115.662 313.101 115.937 314.469C116.211 315.836 117.425 316.862 117.998 317.203M136.208 278.918C135.787 278.5 135.676 277.528 135.747 276.184M136.208 278.918C150.867 281.083 184.794 281.834 207.068 277.459M117.998 317.203C114.219 320.052 105.904 330.056 102.881 347.284C99.8571 364.513 98.8721 387.734 98.7576 397.192C97.7791 397.772 96.5745 398.47 95.2151 399.24M141.686 186.283C141.352 186.066 141.015 185.838 140.674 185.599C138.836 184.308 137.565 182.586 136.705 180.813M141.686 186.283C144.097 198.019 153.662 226.482 172.627 246.445C182.935 256.016 199.426 266.613 207.672 267.638M207.672 267.638C207.051 268.664 205.907 271.467 206.298 274.475M136.705 180.813C136.883 187.194 138.888 202.895 145.484 214.654C153.73 229.353 160.258 241.317 170.909 252.256C181.56 263.194 198.396 273.449 206.298 274.475M206.298 274.475C206.661 276.011 206.274 275.404 207.068 277.459M212.826 268.664C217.522 268.891 228.425 270.715 234.472 276.184C242.03 283.02 244.779 287.806 245.81 293.275M256.023 289.857C256.222 287.943 254.107 282.451 253.025 279.944C247.528 268.664 230.349 259.092 225.539 257.383C222.27 256.222 220.092 257.115 219.089 257.97M234.472 237.726C235.738 236.228 237.803 234.159 239.969 232.942M239.969 232.942C231.247 230.72 212.4 225.32 206.787 221.491M206.787 221.491C207.064 223.569 207.37 225.942 207.672 228.404M228.631 237.91C228.107 238.177 227.536 238.511 226.913 238.924C220.728 243.026 219.354 247.128 219.011 248.496C218.695 249.752 220.411 255.919 219.089 257.97M228.631 237.91C226.913 237.726 212.139 233.609 207.672 228.404M82.6094 228.404C82.3348 230.087 82.1567 234.307 83.6401 237.726C85.4944 242.001 82.1954 247.812 85.4944 249.521C88.7934 251.23 93.6039 250.547 95.3218 247.812C96.9252 248.04 101.094 248.359 104.942 247.812C109.752 247.128 111.126 245.761 114.906 245.761C118.685 245.761 119.029 238.924 117.998 234.139C117.247 230.653 117.226 226.582 114.082 225.582M82.6094 228.404C82.8388 228.041 83.4636 227.799 84.3076 227.644M82.6094 228.404C80.3673 220.201 82.3006 206.107 84.2329 196.741M84.3076 227.644C86.4974 227.243 90.163 227.434 92.2296 227.644C91.8579 227.063 91.6683 226.197 92.2296 225.409M84.3076 227.644V225.935L86.3887 225.797M92.2296 225.409C92.8788 224.497 94.5324 223.689 98.0704 223.542C104.667 223.269 105.4 225.023 104.942 225.935H109.065C109.552 225.789 110.01 225.672 110.439 225.582M92.2296 225.409L86.3887 225.797M86.3887 225.797C85.9306 217.732 85.9075 199.764 89.4809 192.405M110.439 225.582C111.983 225.261 113.165 225.291 114.082 225.582M114.082 225.582C115.225 219.964 117.352 206.22 116.723 196.196M116.723 196.196C121.814 201.972 128.218 211.913 131.741 225.935C137.926 250.547 137.926 250.547 137.926 258.409C137.926 264.346 135.966 272.037 135.747 276.184M84.2329 196.741C81.7914 199.694 79.1412 203.098 76.7681 204.159M64.3649 185.349C62.7519 187.591 61.8104 189.716 62.3381 191.239C62.4654 191.606 62.6266 191.997 62.8177 192.405M62.8177 192.405C65.2061 197.507 72.2638 205.349 76.0813 204.399C76.3073 204.343 76.5364 204.262 76.7681 204.159M62.8177 192.405C58.6494 195.947 50.6564 203.647 52.0308 206.109C53.4051 208.57 54.4358 208.046 54.7794 207.476C54.3213 208.274 53.6799 210.211 54.7794 211.578C55.8788 212.945 57.299 212.148 57.8716 211.578C57.528 212.49 57.2532 214.518 58.9024 215.338C60.5515 216.158 61.88 215.224 62.3381 214.654C61.88 215.46 61.2387 217.239 62.3381 217.913C63.7125 218.756 65.7739 217.389 68.5226 216.022C71.2712 214.654 73.4305 216.022 74.7559 213.287C75.8163 211.099 76.5392 206.29 76.7681 204.159M192.211 198.459C190.951 200.211 188.913 204.536 190.837 207.818C193.242 211.92 194.96 209.869 195.991 211.92C197.021 213.971 198.396 216.705 200.457 215.68C202.106 214.86 202.748 212.831 202.862 211.92C203.435 212.945 204.924 214.791 206.298 213.971C207.672 213.15 207.787 211.122 207.672 210.211C208.13 210.894 209.322 212.125 210.421 211.578C211.52 211.031 212.253 208.388 212.483 207.134C212.712 207.362 213.376 207.681 214.2 207.134C215.231 206.451 215.575 197.1 208.36 191.349M192.211 198.459C197.317 197.107 204.444 194.636 208.36 191.349M207.068 277.459C210.164 285.462 217.584 298.62 228.101 302.136M224.164 253.281C223.363 251.23 222.652 246.513 226.226 244.052C229.799 241.591 231.379 243.026 231.723 244.052C231.494 244.622 230.555 246.308 228.631 248.496C226.707 250.683 224.851 252.598 224.164 253.281ZM100.819 228.669C106.316 229.011 108.378 231.404 109.409 232.771C110.439 234.139 112.157 243.368 102.881 244.052C93.6039 244.735 93.6039 236.19 93.6039 235.164C93.6039 234.139 95.6654 228.935 100.819 228.669ZM101.163 231.404C105.286 231.404 107.691 234.139 107.691 235.848C107.691 237.757 107.691 240.975 102.881 241.317C98.0704 241.659 96.6961 237.899 96.6961 236.532C96.6961 234.139 98.0704 231.404 101.163 231.404ZM221.759 130.222C220.728 131.59 221.416 132.957 222.446 133.299C223.477 133.641 224.508 133.299 224.851 132.273C225.195 131.248 224.851 130.222 224.164 129.881C223.477 129.539 222.446 129.539 221.759 130.222ZM224.164 126.12C223.704 126.578 223.821 127.83 224.508 128.171C225.195 128.513 226.226 128.513 226.569 127.83C226.913 127.146 226.569 126.12 225.882 125.779C225.195 125.437 224.508 125.779 224.164 126.12Z" stroke="white" stroke-width="2"/>
<mask id="mask0_34_3837" style="mask-type:alpha" maskUnits="userSpaceOnUse" x="0" y="2" width="322" height="430">
<rect y="2" width="322" height="430" rx="40" fill="white"/>
</mask>
<g mask="url(#mask0_34_3837)">
<path d="M314.671 0.945291C294.268 12.0426 300.846 24.921 306.685 29.973C303.336 31.343 295.813 35.162 292.516 39.4776C289.218 43.7932 291.142 48.126 292.516 49.7529C291.228 50.2667 287.93 52.6813 285.045 58.23C281.438 65.1658 291.485 63.1108 286.59 66.4502C282.674 69.1218 267.44 74.9273 260.312 77.4961C289.855 78.3032 321.814 66.3752 334.834 59.9804C335.07 59.8636 335.305 59.7468 335.539 59.6302L335.912 59.4441C343.855 55.3836 377.718 32.3785 373.41 22.5234C369.907 14.5087 353.401 14.3888 345.587 15.3307C347.905 9.4224 340.176 -12.9263 314.671 0.945291Z" fill="white"/>
<path d="M335.539 59.6302C335.656 59.5734 335.781 59.5113 335.912 59.4441M335.539 59.6302C335.664 59.5681 335.788 59.5061 335.912 59.4441M335.539 59.6302C335.311 59.7449 335.076 59.8617 334.834 59.9804M335.539 59.6302C335.305 59.7468 335.07 59.8636 334.834 59.9804M335.539 59.6302L335.912 59.4441M334.834 59.9804C325.891 64.4093 315.829 68.9358 304.624 73.386C255.984 92.7036 222.356 87.4289 211.621 82.3769C215.228 82.2913 225.481 81.4008 237.641 78.5237C249.801 75.6466 257.822 67.0496 260.312 63.1108C253.099 51.6024 263.318 42.5602 269.329 39.4776C259.024 26.3252 280.493 10.0218 292.516 3.51411C280.923 -4.963 285.045 -12.6695 285.045 -15.2383H387.837V25.3491C382.157 31.4038 365.128 44.8538 335.912 59.4441M334.834 59.9804C321.814 66.3752 289.855 78.3032 260.312 77.4961C267.44 74.9273 282.674 69.1218 286.59 66.4502C291.485 63.1108 281.438 65.1658 285.045 58.23C287.93 52.6813 291.228 50.2667 292.516 49.7529C291.142 48.126 289.218 43.7932 292.516 39.4776C295.813 35.162 303.336 31.343 306.685 29.973C300.846 24.921 294.268 12.0426 314.671 0.945291C340.176 -12.9263 347.905 9.4224 345.587 15.3307C353.401 14.3888 369.907 14.5087 373.41 22.5234C377.718 32.3785 343.855 55.3836 335.912 59.4441" stroke="white" stroke-width="2"/>
<path d="M46.7332 16.6762C52.5588 6.63602 37.8767 -5.15592 29.8074 -9.79688H-51.082V69.4262C-41.4383 68.315 -17.6635 67.3475 0.285727 72.3676C22.7222 78.6427 57.5578 70.7988 57.5578 61.5823C57.5578 54.2091 40.7633 50.6663 32.366 49.8165C28.7446 42.757 17.0803 40.7307 11.7008 40.6C20.9509 36.8088 40.9076 26.7163 46.7332 16.6762Z" fill="white"/>
<path d="M29.8074 -9.79688C37.8767 -5.15592 52.5588 6.63602 46.7332 16.6762C40.9076 26.7163 20.9509 36.8088 11.7008 40.6C17.0803 40.7307 28.7446 42.757 32.366 49.8165C40.7633 50.6663 57.5578 54.2091 57.5578 61.5823C57.5578 70.7988 22.7222 78.6427 0.285727 72.3676C-17.6635 67.3475 -41.4383 68.315 -51.082 69.4262M29.8074 -9.79688H-51.082V69.4262M29.8074 -9.79688H72.3187C78.2886 -7.11689 90.5434 0.831561 91.803 11.1855C93.3775 24.1278 75.6645 45.8946 54.9993 50.6009C59.5259 52.0389 69.0123 56.2485 70.7442 61.5823C81.2408 62.6935 102.273 66.9946 102.431 75.3091C102.628 85.7022 59.7228 92.3695 17.9987 85.1139C9.33905 84.0681 -11.6804 82.6039 -26.4806 85.1139C-41.2808 87.6239 -49.0483 87.99 -51.082 87.8593V69.4262" stroke="white" stroke-width="2"/>
</g>
</g>
<defs>
<clipPath id="clip0_34_3837">
<rect width="324" height="434" fill="white"/>
</clipPath>
</defs>
</svg>
