<svg width="324" height="434" viewBox="0 0 324 434" fill="none" xmlns="http://www.w3.org/2000/svg">
<g clip-path="url(#clip0_34_3933)">
<path d="M40 1.5H284C305.263 1.5 322.5 18.737 322.5 40V394C322.5 415.263 305.263 432.5 284 432.5H277.2H40C18.737 432.5 1.5 415.263 1.5 394V244.118V40C1.5 18.7371 18.737 1.5 40 1.5Z" fill="black" fill-opacity="0.38" stroke="white" stroke-width="3"/>
<path d="M158.771 406.548C180.323 418.995 217.828 412.801 253.058 412.801C254.145 412.801 255.394 412.77 256.77 412.711L254.18 390.153C256.985 388.77 263.515 386.107 267.195 386.522C258.331 371.304 253.274 345.064 253.499 300.252C253.381 297.389 252.936 291.176 252.107 289.234C251.071 286.807 247.771 282.619 251.071 277.432C253.333 273.877 255.902 271.759 258.129 269.283C255.149 267.913 251.849 266.661 248.154 265.477L226.272 294.586L214.805 282.658C215.151 284.214 215.634 287.637 214.805 288.881C213.977 290.126 212.388 289.4 211.697 288.881C211.87 289.746 211.697 291.578 209.625 291.993C207.552 292.408 205.998 291.475 205.48 290.956C205.653 291.475 205.687 292.719 204.444 293.549C202.89 294.586 197.709 282.658 188.901 280.583C181.855 278.923 180.094 283.003 180.094 285.251C180.267 288.363 179.99 294.586 177.503 294.586C175.57 294.586 174.438 292.178 174.108 289.234C165.667 304.08 157.258 327.117 152.635 348.995C148.803 367.13 147.573 384.469 151.081 395.683C152.643 400.675 155.143 404.453 158.771 406.548Z" fill="white"/>
<path d="M301.758 406.548C315.382 403.936 319.527 389.414 304.348 345.896C295.427 320.317 288.446 303.878 281.87 291.993L278.53 292.966L253.499 300.252C253.274 345.064 258.331 371.304 267.195 386.522C271.177 393.359 275.927 397.971 281.311 401.044L281.386 401.087C287.435 404.54 293.67 408.098 301.758 406.548Z" fill="white"/>
<path d="M212.923 251.473V265.477L226.272 282.658L239.865 265.477V251.473C241.765 250.263 246.082 247.117 248.154 244.212C251.09 245.077 257.48 245.457 259.552 240.063C260.289 238.146 260.175 236.478 259.605 235.078C259.255 234.216 258.732 233.455 258.129 232.801C256.954 231.525 255.475 230.651 254.371 230.209C252.581 231.659 248.895 234.663 248.481 235.078L245.959 225.224C240.605 223.841 230.313 217.755 231.971 204.478C232.143 203.503 231.867 201.38 229.38 200.682C226.79 199.479 224.199 200.848 221.091 206.034C218.604 210.183 211.765 214.678 208.657 216.407C202.536 225.765 202.131 237.492 212.923 251.473Z" fill="white"/>
<path d="M65.0792 326.742C73.8869 328.298 95.2325 331.099 110.153 329.854C125.073 328.609 143.655 324.149 151.081 322.075L150.113 314.576C144.877 315.526 136.687 316.357 130.426 317.55C121.834 319.187 112.517 320.519 106.526 320.519C101.785 320.519 94.6948 320.012 87.4874 319.346C81.426 318.787 71.9279 319.941 65.0792 320.425V326.742Z" fill="white"/>
<path d="M54.7175 187.227C41.4545 194.696 25.014 218 18.4516 228.719C9.98954 222.322 -9.21412 208.803 -18.3324 205.898C-18.3324 205.898 -23.8747 208.359 -27.0714 210.527C-30.6577 212.959 -35.4292 217.827 -35.4292 217.827C-30.2487 223.014 1.87321 266.58 18.4516 266.58C31.7143 266.58 48.155 248.946 54.7175 240.129C49.882 263.986 53.2317 300.861 58.4125 320.519C59.9104 320.709 62.2723 320.624 65.0792 320.425C71.9279 319.941 81.426 318.787 87.4874 319.346L78.6178 179.038C71.4767 180.296 62.6521 182.759 54.7175 187.227Z" fill="white"/>
<path d="M170.768 263.438C170.25 236.439 160.925 217.308 155.226 200.682C151.999 191.269 140.451 185.659 130.426 182.763V317.55C136.687 316.357 144.877 315.526 150.113 314.576C153.226 314.011 155.294 313.404 155.294 312.655C155.294 310.58 153.153 295.278 152.635 287.844L174.015 286.807C174.048 285.749 174.175 284.687 174.395 283.695C175.604 278.854 181.026 268.862 193.046 267.617L170.768 263.438Z" fill="white"/>
<path d="M86.3209 140.03C85.0775 145.839 90.6383 149.712 93.5741 150.922C93.6602 153.249 94.1947 155.317 95.0357 157.146L89.9472 177.891C92.0424 180.658 98.0978 186.19 105.558 186.19C113.019 186.19 117.947 182.386 119.478 180.485V165.879C126.8 164.841 136.945 157.903 139.752 150.319C140.904 147.207 142.342 137.872 140.904 130.433C138.901 132.366 136.12 133.249 134.053 133.249C129.908 133.249 127.145 129.562 126.282 127.719C125.418 129.102 122.551 131.764 117.992 131.349C113.433 130.934 110.566 127.719 109.703 126.163C108.839 127.373 106.284 129.793 102.968 129.793C99.6521 129.793 97.8565 128.41 97.3731 127.719C96.178 129.771 95.4496 131.729 95.1965 133.249C93.1293 133.112 89.5007 133.813 87.4874 137.054C86.978 137.875 86.572 138.857 86.3209 140.03Z" fill="white"/>
<path d="M212.923 265.477V251.473C202.131 237.492 202.536 225.765 208.657 216.407M212.923 265.477C209.711 265.76 206.211 266.534 201.579 268.103M212.923 265.477L226.272 282.658L239.865 265.477M248.154 265.477H239.865M248.154 265.477C251.849 266.661 255.149 267.913 258.129 269.283M248.154 265.477L226.272 294.586L214.805 282.658M239.865 265.477V251.473C241.765 250.263 246.082 247.117 248.154 244.212C251.09 245.077 257.48 245.457 259.552 240.063C260.289 238.146 260.175 236.478 259.605 235.078M119.478 180.485V165.879C126.8 164.841 136.945 157.903 139.752 150.319C140.904 147.207 142.342 137.872 140.904 130.433M119.478 180.485C122.406 180.833 126.286 181.566 130.426 182.763M119.478 180.485C117.947 182.386 113.019 186.19 105.558 186.19C98.0978 186.19 92.0424 180.658 89.9472 177.891M193.046 267.617L170.768 263.438C170.25 236.439 160.925 217.308 155.226 200.682C151.999 191.269 140.451 185.659 130.426 182.763M193.046 267.617C181.026 268.862 175.604 278.854 174.395 283.695C174.175 284.687 174.048 285.749 174.015 286.807M193.046 267.617C195.131 267.468 198.308 267.524 201.579 268.103M214.805 282.658C215.842 282.139 216.878 279.649 212.733 273.841C210.376 270.536 205.895 268.866 201.579 268.103M214.805 282.658C215.151 284.214 215.634 287.637 214.805 288.881C213.977 290.126 212.388 289.4 211.697 288.881M214.805 282.658C213.922 278.508 209.647 274.995 207.621 273.757M211.697 288.881C211.87 289.746 211.697 291.578 209.625 291.993C207.552 292.408 205.998 291.475 205.48 290.956M211.697 288.881C212.057 283.97 206.021 277.443 202.958 274.794M205.48 290.956C205.653 291.475 205.687 292.719 204.444 293.549C202.89 294.586 197.709 282.658 188.901 280.583C181.855 278.923 180.094 283.003 180.094 285.251C180.267 288.363 179.99 294.586 177.503 294.586C175.57 294.586 174.438 292.178 174.108 289.234M205.48 290.956C204.596 285.629 199.286 279.345 196.741 276.868M174.015 286.807L152.635 287.844C153.153 295.278 155.294 310.58 155.294 312.655C155.294 313.404 153.226 314.011 150.113 314.576M174.015 286.807C173.989 287.63 174.02 288.451 174.108 289.234M89.9472 177.891L95.0357 157.146C94.1947 155.317 93.6602 153.249 93.5741 150.922C90.6383 149.712 85.0775 145.839 86.3209 140.03C86.572 138.857 86.978 137.875 87.4874 137.054M89.9472 177.891C87.4496 177.891 83.4133 178.193 78.6178 179.038M-18.3324 205.898C-9.21412 208.803 9.98954 222.322 18.4516 228.719C25.014 218 41.4545 194.696 54.7175 187.227C62.6521 182.759 71.4767 180.296 78.6178 179.038M-18.3324 205.898C-19.0232 202.441 -21.5445 194.592 -26.1037 190.858C-31.8026 186.19 -33.3568 185.153 -35.4292 186.19C-37.0159 186.984 -34.6541 190.819 -33.4601 193.969M-18.3324 205.898C-18.3324 205.898 -23.8747 208.359 -27.0714 210.527C-30.6577 212.959 -35.4292 217.827 -35.4292 217.827M-33.4601 193.969C-33.0948 194.934 -32.8388 195.834 -32.8388 196.563M-33.4601 193.969C-35.4292 193.969 -46.2289 190.674 -50.9724 187.227C-56.0841 183.513 -59.7107 186.624 -58.1564 189.218M-58.1564 189.218C-60.2288 188.007 -64.1319 185.153 -64.9608 187.227C-65.7898 189.302 -65.3062 190.512 -64.9608 190.858C-65.479 190.512 -66.7226 190.235 -67.5516 191.895C-68.5878 193.969 -68.0697 195.555 -63.4069 198.119M-58.1564 189.218L-46.7585 194.404M-63.4069 198.119C-64.0974 198.292 -65.582 199.156 -65.9965 201.23C-66.5146 203.824 -54.0813 209.529 -50.9724 212.641C-47.8635 215.753 -40.6097 212.641 -35.4292 217.827M-63.4069 198.119L-53.4936 202.184M-35.4292 217.827C-30.2487 223.014 1.87322 266.58 18.4516 266.58C31.7143 266.58 48.155 248.946 54.7175 240.129C49.882 263.986 53.2317 300.861 58.4125 320.519C59.9104 320.709 62.2723 320.624 65.0792 320.425M65.0792 326.742C73.8869 328.298 95.2325 331.099 110.153 329.854C125.073 328.609 143.655 324.149 151.081 322.075M65.0792 326.742C63.6977 346.593 61.7637 415.289 65.0792 431.492H110.153M65.0792 326.742V320.425M151.081 322.075L152.635 348.995M151.081 322.075L150.113 314.576M174.108 289.234C165.667 304.08 157.258 327.117 152.635 348.995M151.081 395.683C152.643 400.675 155.143 404.453 158.771 406.548C180.323 418.995 217.828 412.801 253.058 412.801C254.145 412.801 255.394 412.77 256.77 412.711M151.081 395.683L151.081 431.492H110.153M151.081 395.683C147.573 384.469 148.803 367.13 152.635 348.995M115.851 354.191L109.634 360.934L110.153 431.492M205.48 329.854L197.708 335.52C197.536 349.351 196.362 377.427 193.046 379.086C205.078 379.086 236.209 388.078 254.18 390.153M254.18 390.153L256.77 412.711M254.18 390.153C256.985 388.77 263.515 386.107 267.195 386.522M256.77 412.711C262.867 412.451 274.454 413.272 279.566 410.645C282.743 408.604 281.707 405.291 279.116 403.936C281.379 403.418 281.446 402.37 281.311 401.044M253.499 300.252C253.381 297.389 252.936 291.176 252.107 289.234C251.071 286.807 247.771 282.619 251.071 277.432C253.333 273.877 255.902 271.759 258.129 269.283M253.499 300.252L278.53 292.966M253.499 300.252C253.274 345.064 258.331 371.304 267.195 386.522M281.87 291.993C288.446 303.878 295.427 320.317 304.348 345.896C319.527 389.414 315.382 403.936 301.758 406.548C293.67 408.098 287.435 404.54 281.386 401.087M281.87 291.993C280.566 292.373 278.53 292.966 278.53 292.966M281.87 291.993C280.365 289.272 278.822 286.812 277.181 284.573M281.87 291.993L278.53 292.966M278.53 292.966C277.818 290.099 274.907 288.491 277.181 284.573M277.181 284.573C278.218 282.786 280.334 280.519 284.228 277.432C294.176 269.549 294.59 265.158 293.554 263.947C293.899 263.602 294.59 262.495 294.59 260.836C294.59 259.176 293.899 257.724 293.554 257.205C294.245 255.995 295.419 253.367 294.59 252.537C293.761 251.707 292.863 251.154 292.518 250.981C292.863 249.944 293.243 247.662 292 246.832C290.756 246.002 288.028 247.178 286.819 247.869C285.265 246.832 283.71 245.795 279.566 255.13C276.25 262.599 268.513 268.269 265.059 270.171C270.566 262.91 268.686 259.798 266.096 259.28C263.505 258.761 263.505 260.836 260.915 265.477C260.1 266.936 259.15 268.148 258.129 269.283M267.195 386.522C271.177 393.359 275.927 397.971 281.311 401.044M281.311 401.044L281.386 401.087M281.311 401.044C281.336 401.058 281.361 401.073 281.386 401.087M208.657 216.407C211.765 214.678 218.604 210.183 221.091 206.034C224.2 200.848 226.79 199.479 229.38 200.682C231.867 201.38 232.143 203.503 231.971 204.478C230.313 217.755 240.605 223.841 245.959 225.224L248.481 235.078C248.895 234.663 252.581 231.659 254.371 230.209C255.475 230.651 256.954 231.525 258.129 232.801C258.732 233.455 259.255 234.216 259.605 235.078M208.657 216.407C207.793 216.753 205.756 217.444 204.512 217.444C205.333 216.061 207.21 212.258 208.155 208.109C208.958 200.912 213 192.837 224.2 192.549C227.089 189.61 235.992 185.703 248.481 193.587C264.092 203.441 264.472 200.848 266.096 212.776C267.719 224.705 261.082 232.485 259.605 235.078M87.4874 137.054C89.5007 133.813 93.1293 133.112 95.1965 133.249C95.4496 131.729 96.178 129.771 97.3731 127.719C97.8565 128.41 99.6521 129.793 102.968 129.793C106.284 129.793 108.839 127.373 109.703 126.163C110.566 127.719 113.433 130.934 117.992 131.349C122.551 131.764 125.418 129.102 126.282 127.719C127.145 129.562 129.908 133.249 134.053 133.249C136.12 133.249 138.901 132.366 140.904 130.433M87.4874 137.054C81.4008 123.187 89.9472 103.861 108.667 100.231C127.386 96.6001 136.643 106.973 141.824 117.865C144.708 123.927 143.418 128.007 140.904 130.433M130.426 182.763V317.55M130.426 317.55C121.834 319.187 112.517 320.519 106.526 320.519C101.785 320.519 94.6948 320.012 87.4874 319.346M130.426 317.55C136.687 316.357 144.877 315.526 150.113 314.576M78.6178 179.038L87.4874 319.346M87.4874 319.346C81.426 318.787 71.9279 319.941 65.0792 320.425M-64.8915 190.774L-49.8671 197.516M-46.7585 203.221C-43.6957 202.57 -36.6237 202.195 -32.8388 205.898M265.059 278.943C265.6 276.868 268.34 272.719 274.972 272.719" stroke="white" stroke-width="2"/>
<path d="M157.739 147.423L171.371 142.146M157.739 157.977H166.094M157.739 168.531L171.371 176.006M153.342 178.645L157.739 184.361" stroke="white" stroke-width="2" stroke-linecap="round" stroke-linejoin="round"/>
<path d="M193.348 219.967L182.239 218.247M196.704 209.875L187.289 203.517M200.287 200.909L192.378 188.318" stroke="white" stroke-width="2" stroke-linecap="round" stroke-linejoin="round"/>
</g>
<defs>
<clipPath id="clip0_34_3933">
<rect width="324" height="434" fill="white"/>
</clipPath>
</defs>
</svg>
