<svg width="324" height="434" viewBox="0 0 324 434" fill="none" xmlns="http://www.w3.org/2000/svg">
<g clip-path="url(#clip0_34_3983)">
<mask id="path-1-inside-1_34_3983" fill="white">
<path d="M0 40C0 17.9086 17.9086 0 40 0H284C306.091 0 324 17.9086 324 40V394C324 416.091 306.091 434 284 434H40C17.9086 434 0 416.091 0 394V40Z"/>
</mask>
<path d="M0 40C0 17.9086 17.9086 0 40 0H284C306.091 0 324 17.9086 324 40V394C324 416.091 306.091 434 284 434H40C17.9086 434 0 416.091 0 394V40Z" fill="black" fill-opacity="0.38"/>
<path d="M3 40C3 19.5655 19.5655 3 40 3V-3C16.2518 -3 -3 16.2518 -3 40H3ZM40 3H284V-3H40V3ZM284 3C304.435 3 321 19.5655 321 40H327C327 16.2518 307.748 -3 284 -3V3ZM321 40V394H327V40H321ZM321 394C321 414.435 304.435 431 284 431V437C307.748 437 327 417.748 327 394H321ZM284 431H40V437H284V431ZM40 431C19.5655 431 3 414.435 3 394H-3C-3 417.748 16.2518 437 40 437V431ZM3 394V40H-3V394H3Z" fill="white" mask="url(#path-1-inside-1_34_3983)"/>
<path d="M75.834 35.2539L75.834 55.1674" stroke="white" stroke-width="12" stroke-linecap="round" stroke-linejoin="round"/>
<path d="M75.834 343.008L75.834 362.921" stroke="white" stroke-width="12" stroke-linecap="round" stroke-linejoin="round"/>
<path d="M177.6 97.3223L191.681 83.2413" stroke="white" stroke-width="12" stroke-linecap="round" stroke-linejoin="round"/>
<path d="M-6.53516 166.503L79.4548 210.856L129.238 97.7109" stroke="white" stroke-width="18" stroke-linecap="round" stroke-linejoin="round"/>
<mask id="path-7-inside-2_34_3983" fill="white">
<path fill-rule="evenodd" clip-rule="evenodd" d="M71.5 16C46.6281 16 22.912 20.9483 1.28237 29.9142C5.75259 12.7055 21.3925 0 40 0H284C306.091 0 324 17.9086 324 40V394C324 416.091 306.091 434 284 434H40C17.9086 434 0 416.091 0 394V368.549C21.9733 377.854 46.1357 383 71.5 383C90.4516 383 108.732 380.127 125.93 374.793C151.613 388.916 188.191 397.993 203.791 400.839L220.655 406.206C226.821 408.168 230.645 403.057 232.865 396.404C233.163 394.229 232.283 388.981 226.375 385.38C229.495 384.092 232.907 383.945 236.326 383.797C238.715 383.693 241.109 383.59 243.41 383.097C245.464 382.657 247.673 382.024 249.987 381.36L249.988 381.36L249.989 381.36C256.425 379.514 263.665 377.438 270.604 378.662C278.152 379.992 283.369 388.457 285.034 392.523C302.239 386.978 313.339 374.78 312.229 357.038C311.341 342.845 293.729 331.144 285.034 327.068C281.96 330.276 278.369 332.422 274.489 333.197C258.95 336.302 244.155 325.62 238.701 319.891L212.639 316.777C239.091 284.977 255 244.097 255 199.5C255 98.1557 172.844 16 71.5 16Z"/>
</mask>
<path d="M1.28237 29.9142L-1.62126 29.1599L-3.13661 34.9934L2.43114 32.6855L1.28237 29.9142ZM0 368.549L1.16986 365.786L-3 364.02L-3 368.549H0ZM125.93 374.793L127.375 372.164L126.259 371.55L125.041 371.928L125.93 374.793ZM203.791 400.839L204.701 397.981L204.518 397.922L204.33 397.888L203.791 400.839ZM220.655 406.206L219.745 409.064L219.745 409.064L220.655 406.206ZM232.865 396.404L235.711 397.353L235.799 397.088L235.837 396.811L232.865 396.404ZM226.375 385.38L225.23 382.607L219.763 384.864L224.813 387.942L226.375 385.38ZM236.326 383.797L236.456 386.794L236.456 386.794L236.326 383.797ZM243.41 383.097L242.782 380.164L242.782 380.164L243.41 383.097ZM249.987 381.36L250.814 384.244L250.826 384.241L250.839 384.237L249.987 381.36ZM249.988 381.36L249.301 378.44L249.218 378.459L249.136 378.484L249.988 381.36ZM249.989 381.36L250.676 384.28L250.746 384.264L250.816 384.244L249.989 381.36ZM270.604 378.662L270.084 381.616L270.084 381.616L270.604 378.662ZM285.034 392.523L282.258 393.659L283.311 396.23L285.955 395.378L285.034 392.523ZM312.229 357.038L309.235 357.226L309.235 357.226L312.229 357.038ZM285.034 327.068L286.308 324.352L284.358 323.438L282.868 324.992L285.034 327.068ZM274.489 333.197L273.902 330.255L273.902 330.255L274.489 333.197ZM238.701 319.891L240.874 317.822L240.129 317.04L239.057 316.912L238.701 319.891ZM212.639 316.777L210.332 314.858L206.803 319.101L212.283 319.756L212.639 316.777ZM2.43114 32.6855C23.703 23.868 47.0292 19 71.5 19V13C46.227 13 22.121 18.0287 0.133605 27.1428L2.43114 32.6855ZM40 -3C19.9928 -3 3.18403 10.6613 -1.62126 29.1599L4.18601 30.6684C8.32114 14.7496 22.7922 3 40 3V-3ZM284 -3H40V3H284V-3ZM327 40C327 16.2518 307.748 -3 284 -3V3C304.435 3 321 19.5655 321 40H327ZM327 394V40H321V394H327ZM284 437C307.748 437 327 417.748 327 394H321C321 414.435 304.435 431 284 431V437ZM40 437H284V431H40V437ZM-3 394C-3 417.748 16.2518 437 40 437V431C19.5655 431 3 414.435 3 394H-3ZM-3 368.549V394H3V368.549H-3ZM71.5 380C46.5448 380 22.7797 374.937 1.16986 365.786L-1.16986 371.311C21.1668 380.77 45.7265 386 71.5 386V380ZM125.041 371.928C108.128 377.173 90.1468 380 71.5 380V386C90.7563 386 109.336 383.081 126.819 377.658L125.041 371.928ZM124.484 377.422C150.585 391.774 187.533 400.923 203.253 403.791L204.33 397.888C188.849 395.064 152.641 386.057 127.375 372.164L124.484 377.422ZM202.881 403.698L219.745 409.064L221.565 403.347L204.701 397.981L202.881 403.698ZM219.745 409.064C223.94 410.399 227.55 409.274 230.283 406.732C232.828 404.365 234.539 400.866 235.711 397.353L230.019 395.454C228.971 398.595 227.66 400.978 226.197 402.339C224.921 403.525 223.536 403.974 221.565 403.347L219.745 409.064ZM235.837 396.811C236.285 393.543 234.936 387.085 227.936 382.818L224.813 387.942C229.629 390.877 230.041 394.916 229.893 395.996L235.837 396.811ZM227.519 388.153C230.069 387.101 232.936 386.946 236.456 386.794L236.197 380.799C232.877 380.943 228.922 381.084 225.23 382.607L227.519 388.153ZM236.456 386.794C238.799 386.692 241.448 386.585 244.038 386.031L242.782 380.164C240.769 380.594 238.632 380.694 236.197 380.799L236.456 386.794ZM244.038 386.031C246.211 385.565 248.525 384.901 250.814 384.244L249.16 378.477C246.822 379.147 244.716 379.749 242.782 380.164L244.038 386.031ZM250.839 384.237L250.84 384.236L249.136 378.484L249.134 378.484L250.839 384.237ZM250.675 384.28L250.676 384.28L249.302 378.44L249.301 378.44L250.675 384.28ZM250.816 384.244C257.393 382.357 263.946 380.534 270.084 381.616L271.125 375.707C263.384 374.342 255.456 376.671 249.162 378.476L250.816 384.244ZM270.084 381.616C272.913 382.115 275.541 384.012 277.773 386.548C279.983 389.06 281.537 391.898 282.258 393.659L287.811 391.386C286.867 389.081 284.979 385.654 282.278 382.584C279.598 379.539 275.843 376.539 271.125 375.707L270.084 381.616ZM285.955 395.378C294.971 392.472 302.6 387.756 307.839 381.233C313.112 374.667 315.823 366.439 315.223 356.851L309.235 357.226C309.745 365.38 307.461 372.121 303.161 377.476C298.826 382.874 292.302 387.029 284.114 389.667L285.955 395.378ZM315.223 356.851C314.707 348.604 309.402 341.456 303.602 336.062C297.735 330.605 290.884 326.497 286.308 324.352L283.761 329.784C287.879 331.715 294.183 335.495 299.516 340.456C304.919 345.48 308.863 351.279 309.235 357.226L315.223 356.851ZM282.868 324.992C280.136 327.844 277.07 329.622 273.902 330.255L275.077 336.139C279.668 335.222 283.785 332.708 287.2 329.143L282.868 324.992ZM273.902 330.255C266.97 331.64 260.061 329.974 254.099 327.146C248.132 324.317 243.366 320.44 240.874 317.822L236.528 321.959C239.49 325.071 244.848 329.4 251.528 332.567C258.211 335.737 266.469 337.859 275.077 336.139L273.902 330.255ZM239.057 316.912L212.994 313.798L212.283 319.756L238.345 322.869L239.057 316.912ZM252 199.5C252 243.37 236.353 283.578 210.332 314.858L214.945 318.695C241.829 286.377 258 244.823 258 199.5H252ZM71.5 19C171.187 19 252 99.8126 252 199.5H258C258 96.4989 174.501 13 71.5 13V19Z" fill="white" mask="url(#path-7-inside-2_34_3983)"/>
<path d="M224.614 191.138C222.854 195.52 209.647 197.711 206.566 197.273C205.554 197.129 204.608 195.801 203.792 194.032L178.263 204.566C167.604 209.187 145.065 219.98 140.181 226.19C132.644 224.022 117.28 220.781 101.272 219.401C102.572 220.521 103.726 221.86 104.662 223.417C107.325 227.853 105.032 234.506 103.552 237.279C107.104 248.811 100.962 257.839 97.4466 260.912C111.234 265.607 128.715 269.509 140.181 267.218C144.424 266.492 153.733 263.052 161.271 259.27C157.862 268.919 152.455 288.906 153.658 302.703C153.891 305.378 154.373 307.821 155.166 309.911L238.701 319.891L203.792 274.981L207.116 271.1C205.524 271.1 201.009 270.545 195.681 268.327C189.021 265.555 187.911 261.674 190.131 259.27C191.907 257.346 193.461 257.853 194.016 258.347C193.646 257.608 193.35 255.575 195.126 253.357C196.902 251.14 198.456 251.324 199.011 251.694C198.123 248.589 201.231 247.074 202.896 246.704C197.901 242.269 189.132 233.065 194.016 231.734C198.9 230.403 206.041 238.572 209.001 242.823C209.001 241.344 210.333 238.72 215.661 240.051C220.988 241.381 220.1 252.064 218.991 257.238L207.116 271.1L203.792 274.981L238.701 319.891C244.156 325.62 258.95 336.302 274.49 333.197C278.369 332.422 281.961 330.276 285.035 327.068C297.353 314.212 301.359 284.305 282.26 257.238C274.12 238.203 255.509 199.355 246.185 196.25C236.861 193.145 227.92 191.548 224.614 191.138Z" fill="white"/>
<path d="M72.4715 219.678C77.4664 224.668 77.4668 227.853 79.6868 236.17C81.7492 243.896 80.2418 251.14 79.6868 253.357C81.8439 254.605 84.9068 256.071 88.5667 257.583C92.1186 252.535 91.5266 242.313 90.7866 237.833C88.1967 237.279 82.3507 234.728 79.6868 228.962C77.9141 225.125 79.2871 221.445 81.7962 218.842C78.5636 218.976 75.4329 219.245 72.4715 219.678Z" fill="white"/>
<path d="M177.071 151.696C175.662 152.748 174.182 157.319 174.035 159.657C173.862 162.429 175.31 165.282 177.071 165.282C177.682 165.282 177.975 164.965 178.263 164.405C178.804 163.351 179.326 161.436 181.913 159.146C185.083 156.342 192.332 149.55 195.56 146.504C197.353 146.255 199.258 146.077 201.283 145.999C203.337 148.336 208.855 153.712 214.489 156.517C220.124 159.322 225.055 160.899 226.816 161.337C229.738 159.155 235.268 156.671 237.669 160.899C238.161 161.766 238.522 162.914 238.701 164.405C240.022 175.361 231.218 175.799 226.375 173.608C226.229 174.777 225.231 177.465 222.413 178.867C222.489 179.154 225.094 189.943 224.614 191.138C227.92 191.548 236.861 193.145 246.185 196.25C255.509 199.355 274.12 238.203 282.26 257.238C283.925 253.912 286.811 245.484 285.035 238.387C282.815 229.516 276.155 230.071 270.605 223.417C265.055 216.764 276.155 207.893 274.49 202.349C272.825 196.804 258.95 192.923 255.62 189.042C252.29 185.161 261.725 176.29 258.395 172.409C255.065 168.528 240.08 154.667 232.865 146.504C225.65 138.342 225.095 134.152 202.896 133.043C185.136 132.156 178.279 145.109 177.071 151.696Z" fill="white"/>
<path d="M186.731 180.62C186.304 180.342 185.872 180.05 185.435 179.743C183.08 178.088 181.451 175.881 180.349 173.608C180.577 181.789 169.81 189.491 178.263 204.566L203.792 194.032C202.618 191.488 201.716 188.033 201.283 185.879C199.21 185.879 193.625 185.102 186.731 180.62Z" fill="white"/>
<path d="M216.655 377.377L203.792 400.839L220.655 406.205C226.822 408.168 230.645 403.057 232.865 396.404C233.164 394.229 232.283 388.981 226.375 385.38L216.655 377.377Z" fill="white"/>
<path d="M178.263 164.405C178.804 163.351 179.326 161.436 181.913 159.146C185.083 156.342 192.332 149.55 195.56 146.504C197.353 146.255 199.258 146.077 201.283 145.999C203.337 148.336 208.855 153.712 214.489 156.517C220.124 159.322 225.055 160.899 226.816 161.337C229.738 159.155 235.268 156.671 237.669 160.899C238.161 161.766 238.522 162.914 238.701 164.405C240.022 175.361 231.218 175.799 226.375 173.608C226.229 174.777 225.231 177.465 222.413 178.867C222.489 179.154 225.094 189.943 224.614 191.138M178.263 164.405C177.975 164.965 177.682 165.282 177.071 165.282C175.31 165.282 173.862 162.429 174.035 159.657C174.182 157.319 175.662 152.748 177.071 151.696C178.279 145.109 185.136 132.156 202.896 133.043C225.095 134.152 225.65 138.342 232.865 146.504C240.08 154.667 255.065 168.528 258.395 172.409C261.725 176.29 252.29 185.161 255.62 189.042C258.95 192.923 272.825 196.804 274.49 202.349C276.155 207.893 265.055 216.764 270.605 223.417C276.155 230.071 282.815 229.516 285.035 238.387C286.811 245.484 283.925 253.912 282.26 257.238M178.263 164.405C178.2 166.443 178.649 170.104 180.349 173.608M224.614 191.138C222.854 195.52 209.647 197.711 206.566 197.273C205.554 197.129 204.608 195.801 203.792 194.032M224.614 191.138C227.92 191.548 236.861 193.145 246.185 196.25C255.509 199.355 274.12 238.203 282.26 257.238M180.349 173.608C181.451 175.881 183.08 178.088 185.435 179.743C185.872 180.05 186.304 180.342 186.731 180.62C193.625 185.102 199.21 185.879 201.283 185.879C201.716 188.033 202.618 191.488 203.792 194.032M180.349 173.608C180.577 181.789 169.81 189.491 178.263 204.566M178.263 204.566L203.792 194.032M178.263 204.566C167.604 209.187 145.065 219.98 140.181 226.19C132.644 224.022 117.28 220.781 101.272 219.401M282.26 257.238C301.359 284.305 297.353 314.212 285.035 327.068M72.4715 219.678C77.4664 224.668 77.4668 227.853 79.6868 236.17C81.7492 243.896 80.2418 251.14 79.6868 253.357M72.4715 219.678C64.5166 219.863 48.4957 221.563 48.0517 226.886C47.6077 232.208 50.087 233.213 53.047 232.843C51.012 234.137 49.0174 236.64 49.717 238.387C50.827 241.16 53.9718 240.051 55.8218 240.051C53.9719 240.79 50.8272 242.934 53.047 245.595C55.2668 248.257 59.5217 247.443 61.3717 246.704C60.0767 247.998 58.0417 251.14 60.2617 253.357C62.4817 255.575 63.9617 255.39 65.2567 254.466C64.7016 256.869 68.3645 259.013 74.1366 257.238C78.5766 255.874 79.6868 254.281 79.6868 253.357M72.4715 219.678C75.4329 219.245 78.5636 218.976 81.7962 218.842M79.6868 253.357C81.8439 254.605 84.9068 256.071 88.5667 257.583M170.706 253.357C168.716 255.193 165.239 257.279 161.271 259.27M161.271 259.27C153.733 263.052 144.424 266.492 140.181 267.218C128.715 269.509 111.234 265.607 97.4466 260.912M161.271 259.27C157.862 268.919 152.455 288.906 153.658 302.703M238.701 319.891L155.166 309.911C154.373 307.821 153.891 305.378 153.658 302.703M238.701 319.891C244.156 325.62 258.95 336.302 274.49 333.197C278.369 332.422 281.961 330.276 285.035 327.068M238.701 319.891L203.792 274.981L207.116 271.1M218.991 257.238L267.83 287.178M218.991 257.238C220.1 252.064 220.988 241.381 215.661 240.051C210.333 238.72 209.001 241.344 209.001 242.823C206.041 238.572 198.9 230.403 194.016 231.734C189.132 233.065 197.901 242.269 202.896 246.704C201.231 247.074 198.123 248.589 199.011 251.694C198.456 251.324 196.902 251.14 195.126 253.357C193.35 255.575 193.646 257.608 194.016 258.347C193.461 257.853 191.907 257.346 190.131 259.27C187.911 261.674 189.021 265.555 195.681 268.327C201.009 270.545 205.524 271.1 207.116 271.1M218.991 257.238L207.116 271.1M88.5667 257.583C92.1186 252.535 91.5266 242.313 90.7866 237.833C88.1967 237.279 82.3507 234.728 79.6868 228.962C77.9141 225.125 79.2871 221.445 81.7962 218.842M88.5667 257.583C91.2469 258.69 94.2473 259.822 97.4466 260.912M97.4466 260.912C100.962 257.839 107.103 248.811 103.552 237.279C105.032 234.506 107.325 227.853 104.662 223.417C103.726 221.86 102.572 220.521 101.272 219.401M90.2317 231.734L94.6716 225.635L89.6767 219.678M101.272 219.401C97.9452 216.534 93.6675 215.101 89.6767 215.101C87.0813 215.101 84.0004 216.556 81.7962 218.842M153.658 302.703C137.177 296.789 101.975 289.951 93.0066 309.911C81.7962 334.86 90.7866 354.266 122.976 373.117C148.728 388.198 187.583 397.882 203.792 400.839M203.792 400.839L216.655 377.377M203.792 400.839L220.655 406.205M145.731 329.87C157.838 332.525 178.798 345.137 196.433 357.038M196.433 357.038C205.314 363.032 213.352 368.846 218.991 373.117L216.655 377.377M196.433 357.038C206.357 353.896 233.198 346.947 261.17 344.286M285.035 327.068C293.73 331.144 311.342 342.844 312.23 357.038C313.34 374.78 302.24 386.978 285.035 392.523M285.035 392.523C283.37 388.457 278.153 379.992 270.605 378.661C261.17 376.998 251.18 381.434 243.41 383.097C237.815 384.295 231.676 383.192 226.375 385.38M285.035 392.523C287.81 425.235 267.83 419.136 240.635 414.146C230.357 412.26 224.113 409.423 220.655 406.205M226.375 385.38L216.655 377.377M226.375 385.38C232.283 388.981 233.164 394.229 232.865 396.404C230.645 403.057 226.822 408.168 220.655 406.205" stroke="white" stroke-width="2" stroke-linejoin="round"/>
</g>
<defs>
<clipPath id="clip0_34_3983">
<rect width="324" height="434" fill="white"/>
</clipPath>
</defs>
</svg>
