<svg width="324" height="434" viewBox="0 0 324 434" fill="none" xmlns="http://www.w3.org/2000/svg">
<g clip-path="url(#clip0_34_3891)">
<path d="M40 1.5H284C305.263 1.5 322.5 18.737 322.5 40V394C322.5 415.263 305.263 432.5 284 432.5H162H40C18.737 432.5 1.5 415.263 1.5 394V264.462V40C1.5 18.7371 18.737 1.5 40 1.5Z" fill="black" fill-opacity="0.38" stroke="white" stroke-width="3"/>
<path fill-rule="evenodd" clip-rule="evenodd" d="M210.766 397.427C210.766 397.427 186.649 393.208 164.191 393.614C135.636 394.13 118.096 399.438 118.096 399.438L117.989 399.472C117.743 396.82 117.331 394.199 116.753 392.27L113.173 380.932L75.4991 384.164C78.9146 407.056 84.3415 426.742 89.5347 430.132C90.9102 431.03 92.3779 431.837 93.929 432.557C124.805 446.902 188.705 427.266 214.858 419.23C216.89 418.605 218.695 418.051 220.239 417.588C216.86 412.352 213.677 405.312 210.766 397.427Z" fill="white"/>
<path d="M231.402 426.996C247.871 428.788 251.988 415.497 251.988 408.627C251.988 397.875 227.822 352.475 215.738 331.119C213.661 323.462 210.197 310.708 207.753 301.741C206.335 296.54 205.26 292.613 204.998 291.692C204.103 288.556 190.229 270.635 184.859 274.219C180.562 277.087 189.036 287.063 193.809 291.692C192.765 291.244 190.229 290.707 188.439 292.14C186.649 293.574 186.5 295.725 186.649 296.621C184.859 295.904 183.516 296.723 183.069 297.222C180.921 298.062 180.98 301.353 181.279 302.893C179.846 301.101 177.698 302.744 176.803 303.789C173.939 306.657 177.997 310.659 180.383 312.302C181.458 323.054 190.98 334.703 195.607 339.183C198.345 354.592 203.765 378.457 210.766 397.427C213.677 405.312 216.86 412.352 220.239 417.588C222.089 420.455 223.997 422.781 225.951 424.408C227.733 425.892 229.554 426.795 231.402 426.996Z" fill="white"/>
<path d="M175.02 278.7C187.551 276.012 188.887 261.227 188.439 245.098C188.248 238.214 190.148 232.325 189.632 225.563C186.902 221.631 183.821 218.783 181.733 217.32C180.934 216.872 180.159 216.458 179.407 216.076C169.64 211.119 163.704 211.624 156.224 213.288C154.786 213.608 153.063 214.113 151.213 214.855C152.108 219.231 152.914 229.469 148.975 235.42C145.037 241.37 142.262 243.574 141.367 243.932L144.052 254.685L140.025 256.029L132.952 245.098C130.117 245.695 124.883 249.13 124.89 253.162C124.891 253.985 125.02 254.797 125.259 255.581C126.505 259.665 130.755 262.947 135.636 262.571L144.052 274.219L137.874 293.933C140.978 298.038 149.602 306.428 159.268 307.145C168.935 307.862 177.373 300.578 180.383 296.847C178.474 296.589 176.676 296.364 175.02 296.173V278.7Z" fill="white"/>
<path d="M137.874 293.933C125.192 294.381 96.0687 296.979 81.0317 303.789C69.7871 308.882 70.4134 350.077 75.4991 384.164M137.874 293.933L144.052 274.219L135.636 262.571C130.755 262.947 126.505 259.665 125.259 255.581M137.874 293.933C140.978 298.038 149.602 306.428 159.268 307.145C168.935 307.862 177.373 300.578 180.383 296.847M220.239 417.588C216.86 412.352 213.677 405.312 210.766 397.427M220.239 417.588C218.695 418.051 216.89 418.605 214.858 419.23C188.705 427.266 124.805 446.902 93.929 432.557C92.3779 431.837 90.9102 431.03 89.5347 430.132C84.3415 426.742 78.9146 407.056 75.4991 384.164M220.239 417.588C222.089 420.455 223.997 422.781 225.951 424.408M251.988 408.627C252.138 383.388 250.914 329.954 244.828 318.126C241.243 311.159 224.855 305.612 207.753 301.741M251.988 408.627C251.988 415.497 247.871 428.788 231.402 426.996C229.554 426.795 227.733 425.892 225.951 424.408M251.988 408.627C251.988 397.875 227.822 352.475 215.738 331.119C213.661 323.462 210.197 310.708 207.753 301.741M183.069 297.222C180.921 298.062 180.98 301.353 181.279 302.893C179.846 301.101 177.698 302.744 176.803 303.789C173.939 306.657 177.997 310.659 180.383 312.302C181.458 323.054 190.98 334.703 195.607 339.183C198.345 354.592 203.765 378.457 210.766 397.427M183.069 297.222C183.516 296.723 184.859 295.904 186.649 296.621C186.5 295.725 186.649 293.574 188.439 292.14C190.229 290.707 192.765 291.244 193.809 291.692C189.036 287.063 180.563 277.087 184.859 274.219C190.229 270.635 204.103 288.556 204.998 291.692C205.26 292.613 206.335 296.54 207.753 301.741M183.069 297.222C182.152 297.09 181.256 296.965 180.383 296.847M210.766 397.427C215.271 409.631 220.43 419.81 225.951 424.408M210.766 397.427C210.766 397.427 186.649 393.208 164.191 393.614C135.636 394.13 118.096 399.438 118.096 399.438L117.989 399.472M225.951 424.408V431.248M125.259 255.581C125.02 254.797 124.891 253.985 124.89 253.162C124.883 249.13 130.117 245.695 132.952 245.098L140.025 256.029L144.052 254.685L141.367 243.932C142.262 243.574 145.037 241.37 148.975 235.42C152.914 229.469 152.108 219.231 151.213 214.855C153.063 214.113 154.786 213.608 156.224 213.288C163.704 211.624 169.64 211.119 179.407 216.076M125.259 255.581C114.881 254.685 110.935 246.62 107.802 238.108C104.67 229.595 113.62 223.771 116.306 218.395C118.991 213.018 110.488 207.194 119.886 200.922C124.89 196.89 136.444 200.026 151.213 197.786C165.981 195.545 168.219 187.033 177.17 192.409C180.411 194.356 181.635 198.141 181.796 202.266M179.407 216.076C180.159 216.458 180.934 216.872 181.733 217.32C183.821 218.783 186.902 221.631 189.632 225.563M179.407 216.076C180.632 212.739 181.991 207.254 181.796 202.266M181.796 202.266C184.282 203.342 189.432 207.052 190.148 213.288C190.864 219.524 190.102 224.07 189.632 225.563M189.632 225.563C190.148 232.325 188.248 238.214 188.439 245.098C188.887 261.227 187.551 276.012 175.02 278.7V296.173C176.676 296.364 178.474 296.589 180.383 296.847M75.4991 384.164L113.173 380.932M113.173 339.183L117.282 349.707V380.58L113.173 380.932M118.096 408.627C118.351 406.543 118.315 402.98 117.989 399.472M113.173 380.932L116.753 392.27C117.331 394.199 117.743 396.82 117.989 399.472" stroke="white" stroke-width="2" stroke-linecap="round" stroke-linejoin="round"/>
<path d="M164.157 66.6909C155.047 74.0365 158.226 86.5095 160.252 93.2395C156.198 97.5701 148.995 108.758 152.614 118.863C156.233 128.968 171.246 132.315 178.3 132.726C179.468 139.314 183.861 153.312 192.084 156.593C202.363 160.694 220.412 149.215 222.945 161.674C224.971 171.641 203.617 174.781 192.687 175.105C197.742 177.75 211.456 182.188 225.877 178.783C240.298 175.377 251.524 162.21 255.335 156.053C265.888 156.012 276.605 153.208 282.934 146.854C289.263 140.5 289.947 122.467 286.416 119.218C288.342 113.967 294.264 108.709 290.062 95.6565C286.311 84.0031 277.481 84.9355 272.256 83.4796C271.049 75.5977 268.093 65.7105 256.41 59.281C249.75 55.6154 236.618 58.6554 232.324 60.3567C229.959 56.0051 222.655 47.3598 212.362 47.5917C202.068 47.8237 191.048 58.9212 186.824 64.441C182.595 63.0714 173.989 58.7624 164.157 66.6909Z" stroke="white" stroke-width="2" stroke-linecap="round" stroke-linejoin="round"/>
<path d="M233.991 73.702L225.575 71.1895V178.02L233.991 175.785V127.901V113.723V102.058L228.889 104.032V88.3872L233.991 86.4441V73.702Z" fill="white"/>
<path d="M175.438 119.107L219.129 125.747L221.737 126.325V111.575L219.129 111.21L175.438 104.032L168.992 111.21L175.438 119.107Z" fill="white"/>
<path d="M272.489 120.722L233.991 113.723V127.901L272.489 132.208L276.429 126.645L272.489 120.722Z" fill="white"/>
<path d="M219.129 155.67V125.747M219.129 125.747L175.438 119.107L168.992 111.21L175.438 104.032L219.129 111.21M219.129 125.747L221.737 126.325V111.575L219.129 111.21M219.129 111.21L220.025 73.702L225.575 71.1895M225.575 71.1895L233.991 73.702V86.4441M225.575 71.1895V178.02M233.991 86.4441L259.631 75.5246L266.436 81.6265L262.317 91.1382L233.991 102.058M233.991 86.4441L228.889 88.3872V104.032L233.991 102.058M233.991 102.058V113.723M233.991 113.723L272.489 120.722L276.429 126.645L272.489 132.208L233.991 127.901M233.991 113.723V127.901M233.991 127.901V175.785L225.575 178.02M225.575 178.02L219.129 179.361V169.527" stroke="white" stroke-width="2" stroke-linecap="round" stroke-linejoin="round"/>
<path fill-rule="evenodd" clip-rule="evenodd" d="M124.592 68.7188C125.989 64.0748 128.183 55.468 121.897 50.3992C115.779 45.4658 110.349 47.3987 107.201 48.5192C106.858 48.6413 106.542 48.7538 106.256 48.8466C103.341 45.0378 95.7365 37.38 88.6338 37.22C81.531 37.0599 76.4911 43.0255 74.859 46.0283C71.8959 44.8543 62.8344 42.7566 58.2384 45.286C50.1769 49.7227 48.1373 56.5452 47.304 61.9841C46.6449 62.1677 45.9026 62.2963 45.1137 62.433C41.588 63.0437 37.1326 63.8155 35.0171 70.3866C32.751 77.4257 34.7518 81.1796 36.3687 84.2133C36.8207 85.0614 37.2428 85.8533 37.5332 86.6449C35.0968 88.8866 35.5686 101.331 39.9359 105.715C44.3033 110.1 51.6983 112.034 58.9805 112.063C63.5153 119.819 75.5445 118.586 82.9471 112.063C82.9471 112.063 94.0521 117.097 101.145 114.268C106.819 112.004 111.331 100.512 112.138 95.9658C117.005 95.6826 127.365 93.3729 129.862 86.3999C132.359 79.427 127.389 71.7071 124.592 68.7188ZM70.0958 60.8461C70.785 60.4975 71.599 60.4975 72.2882 60.8461C72.5808 60.994 72.9038 61.2903 74.0311 62.4176L74.4139 62.8004C75.1548 63.5414 75.3544 63.7526 75.4716 63.9328C75.995 64.7378 75.995 65.7756 75.4716 66.5806C75.3544 66.7608 75.1548 66.9721 74.4139 67.713L74.3704 67.7564L74.3703 67.7564C74.1892 67.9371 73.9924 68.1335 73.8241 68.3684C73.2221 69.2092 73.0255 70.3621 73.3149 71.3548C73.3955 71.6314 73.5047 71.858 73.6034 72.0632L73.6244 72.1067C73.8742 72.6271 74.1398 73.1418 74.4212 73.6501C74.8223 74.3749 75.7351 74.6373 76.4599 74.2361C77.1847 73.8349 77.4471 72.9221 77.0459 72.1973C76.7927 71.7398 76.5537 71.2766 76.3288 70.8082C76.2657 70.6769 76.2356 70.6136 76.2142 70.5644C76.1986 70.5284 76.1963 70.5195 76.1951 70.5153C76.1634 70.4066 76.1974 70.207 76.2633 70.115L76.2634 70.1149L76.2639 70.1142L76.2684 70.1087C76.2718 70.1046 76.2773 70.0983 76.286 70.0887C76.2912 70.0829 76.2976 70.0759 76.3054 70.0676C76.3524 70.0173 76.4164 69.9531 76.5352 69.8343L76.6445 69.725C77.2242 69.146 77.6743 68.6964 77.9867 68.2159C79.1566 66.4165 79.1566 64.0969 77.9867 62.2976C77.6743 61.817 77.2242 61.3674 76.6445 60.7884L76.5352 60.6791L76.1524 60.2963L75.9865 60.1303C75.1073 59.2496 74.4225 58.5636 73.6423 58.169C72.1017 57.3898 70.2823 57.3898 68.7418 58.169C67.9616 58.5636 67.2768 59.2496 66.3975 60.1303L66.2316 60.2963L65.922 60.606L65.8096 60.7184L65.8095 60.7184C64.8751 61.6523 64.2168 62.3101 63.717 63.1998C63.1494 64.2102 62.7662 65.6837 62.7697 66.8426C62.7727 67.8618 62.9815 68.5969 63.2749 69.6298L63.3011 69.7221C64.3332 73.3584 65.9026 76.8751 68.0093 80.1463C68.4578 80.8428 69.386 81.0438 70.0825 80.5953C70.779 80.1468 70.98 79.2185 70.5315 78.522C68.5879 75.504 67.1398 72.2593 66.1871 68.9029C65.8649 67.7675 65.7714 67.4068 65.7697 66.8337C65.7678 66.1924 66.0185 65.2282 66.3326 64.6691C66.6076 64.1796 66.957 63.8136 68.0433 62.7273L68.353 62.4177C69.4803 61.2903 69.8032 60.994 70.0958 60.8461ZM100.826 61.0203C101.412 60.4345 101.412 59.4847 100.826 58.8989C100.24 58.3131 99.2906 58.3131 98.7048 58.8989L79.4212 78.1826L63.3464 94.2574C62.7606 94.8432 62.7606 95.7929 63.3464 96.3787C63.9321 96.9645 64.8819 96.9645 65.4677 96.3787L74.2456 87.6008C78.915 91.9578 84.3951 94.959 90.18 96.6009L90.2722 96.6271C91.3052 96.9205 92.0402 97.1293 93.0594 97.1324C94.2183 97.1358 95.6918 96.7526 96.7023 96.185C97.5919 95.6852 98.2498 95.0269 99.1837 94.0924L99.2961 93.98L99.6057 93.6704L99.7717 93.5046C100.652 92.6253 101.338 91.9405 101.733 91.1603C102.512 89.6197 102.512 87.8003 101.733 86.2598C101.338 85.4796 100.652 84.7948 99.7717 83.9155L99.6057 83.7496L99.2229 83.3668L99.1137 83.2575C98.5347 82.6779 98.085 82.2278 97.6045 81.9153C95.8051 80.7454 93.4855 80.7454 91.6862 81.9153C91.2056 82.2278 90.756 82.6779 90.177 83.2575L90.0677 83.3668C89.9489 83.4857 89.8847 83.5496 89.8345 83.5966C89.8124 83.6173 89.7998 83.6282 89.7933 83.6336L89.7878 83.6382L89.7872 83.6386L89.787 83.6387C89.695 83.7046 89.4955 83.7387 89.3868 83.707L89.3861 83.7068C89.3816 83.7055 89.3718 83.7027 89.3376 83.6878C89.2885 83.6665 89.2252 83.6363 89.0938 83.5732C86.7895 82.4669 84.6077 81.0168 82.6248 79.2216L100.826 61.0203ZM76.3683 85.4781L80.5011 81.3453C82.7295 83.3826 85.1908 85.0272 87.7954 86.2777L87.8389 86.2986C88.044 86.3974 88.2707 86.5065 88.5472 86.5871C89.5399 86.8765 90.6929 86.6799 91.5336 86.0779C91.7686 85.9096 91.9649 85.7128 92.1457 85.5316L92.1891 85.4882C92.93 84.7473 93.1412 84.5476 93.3215 84.4304C94.1264 83.9071 95.1642 83.9071 95.9692 84.4304C96.1494 84.5476 96.3607 84.7473 97.1016 85.4882L97.4844 85.871C98.6117 86.9983 98.908 87.3212 99.056 87.6138C99.4046 88.303 99.4046 89.117 99.056 89.8062C98.908 90.0988 98.6117 90.4218 97.4844 91.5491L97.1747 91.8587C96.0885 92.945 95.7225 93.2945 95.233 93.5694C94.6738 93.8835 93.7096 94.1343 93.0683 94.1324C92.4953 94.1307 92.1346 94.0372 90.9991 93.7149C85.6934 92.209 80.6649 89.4645 76.3683 85.4781Z" fill="white"/>
<path d="M145.908 149.562C145.185 153.018 143.118 153.11 141.438 154.032C141.368 155.563 141.827 159.42 139.195 160.703C136.563 161.987 133.082 159.996 131.67 158.84C130.179 159.886 127.979 161.519 125.793 160.703C123.061 159.683 121.096 156.442 121.096 156.442C115.508 157.608 113.724 153.138 115.508 148.885C113.049 147.028 111.883 145.573 111.913 143.261C111.943 140.949 115.088 138.362 116.853 137.941C117.502 136.608 116.671 132.53 119.982 130.789C122.938 129.235 125.867 131.186 127.134 131.823C128.882 130.54 130.392 129.071 133.839 129.895C135.804 130.364 136.855 135.167 137.338 136.24C138.624 135.829 142.231 135.027 143.57 137.311C145.663 140.881 142.734 143.896 142.734 143.896C142.734 143.896 146.57 146.391 145.908 149.562Z" stroke="white" stroke-width="2" stroke-linecap="round" stroke-linejoin="round"/>
</g>
<defs>
<clipPath id="clip0_34_3891">
<rect width="324" height="434" fill="white"/>
</clipPath>
</defs>
</svg>
