<svg width="324" height="434" viewBox="0 0 324 434" fill="none" xmlns="http://www.w3.org/2000/svg">
<g clip-path="url(#clip0_34_3965)">
<path d="M1 40C1 17.9086 18.9086 0 41 0H283C305.091 0 323 17.9086 323 40V391.723C323 413.761 305.174 431.648 283.136 431.723L177.304 432.082C177.049 432.083 176.803 431.987 176.615 431.815V431.815C176.034 431.28 175.092 431.587 174.937 432.361L174.893 432.581C174.83 432.895 174.637 433.169 174.361 433.334L173.991 433.555C173.042 434.123 172.692 435.327 173.187 436.315L173.302 436.545C173.618 437.174 173.639 437.911 173.362 438.558L172.64 440.238C172.439 440.706 171.979 441.009 171.47 441.009V441.009C171.401 441.009 171.331 441.015 171.263 441.026L168.233 441.525C166.325 441.84 164.379 441.838 162.472 441.521V441.521C160.433 441.183 158.469 440.488 156.67 439.469L155.485 438.798C151.857 436.744 147.778 435.616 143.61 435.516L40.0374 433.023C18.3273 432.5 1 414.751 1 393.035V40Z" fill="black" fill-opacity="0.38"/>
<path d="M41 1.5H283C304.263 1.5 321.5 18.737 321.5 40V394C321.5 415.263 304.263 432.5 283 432.5H174.778H151.857H41C19.7371 432.5 2.5 415.263 2.5 394V264.462V40C2.5 18.737 19.737 1.5 41 1.5Z" stroke="white" stroke-width="3"/>
<path d="M196.441 338.958C210.473 325.292 241.089 297.015 251.294 293.237L270.004 302.206L274.256 304.244C263.342 330.495 233.265 384.839 200.268 392.203C190.657 393.808 168.164 391.118 150.406 369.193V387.217V418.905C151.506 419.375 152.538 419.821 153.493 420.24L150.947 437.35L150.406 440.984C72.7567 453.854 35.7072 422.357 23.8011 406.27C12.5216 391.03 14.981 311.957 20.6943 293.237C26.0029 294.363 36.2929 296.142 48.8898 297.557C51.3193 297.83 53.8346 298.09 56.4165 298.328C64.5061 299.076 73.2496 299.618 82.0571 299.732C93.6004 299.881 105.606 297.967 116.367 295.335C119.07 294.674 121.695 293.967 124.213 293.237C134.422 290.277 142.897 286.924 147.838 284.597C160.866 297.02 187.004 323.995 196.441 338.958Z" fill="white"/>
<path fill-rule="evenodd" clip-rule="evenodd" d="M118.626 205.75C124.409 215.233 119.225 224.69 116.062 228.218C116.224 226.901 116.323 225.611 116.367 224.377C109.892 224.941 95.3239 222.599 88.8606 208.713C86.0253 209.278 79.5895 209.475 76.5285 205.75C75.1795 210.947 69.9949 223.423 60.0479 231.75C57.7711 233.487 53.8089 238.189 56.174 243.1C58.5392 248.01 65.5299 246.521 67.9251 245.41C68.284 245.898 68.8099 246.533 69.4754 247.238L65.0475 271.969C60.1225 272.527 54.4789 273.435 48.8898 274.816L56.4165 298.328C53.8346 298.09 51.3193 297.83 48.8898 297.557L43.0693 276.448C39.7254 277.508 36.5036 278.762 33.5819 280.238L56.4165 224.377C53.422 213.63 58.7901 202.038 66.7491 200.67C67.9251 196.013 72.7022 190.933 79.931 189.239C99.9958 184.538 111.397 193.896 118.626 205.75ZM116.367 295.335L118.626 273.736C120.481 273.862 122.362 274.021 124.213 274.219V293.237C121.695 293.967 119.07 294.674 116.367 295.335ZM292.116 248.931C289.735 254.35 285.738 262.66 284.037 266.138C283.745 266.256 283.458 266.441 283.187 266.711C281.826 268.066 282.62 270.098 283.187 270.945C281.911 270.239 279.189 269.251 278.509 270.945C277.829 272.638 278.793 275.319 279.36 276.448C278.793 275.932 277.489 275.294 276.808 276.872C276.448 277.708 276.549 278.794 276.808 279.784L274.419 284.597C273.388 284.157 271.666 284.06 270.004 284.194C276.099 268.912 289.055 238.432 292.116 238.771C295.943 239.194 295.093 242.157 292.116 248.931Z" fill="white"/>
<path d="M100.341 250.903L104.593 273.34C108.197 273.289 113.307 273.376 118.626 273.736M100.341 250.903C112.286 247.314 116.015 234.143 116.367 224.377M100.341 250.903C110.776 247.768 114.941 237.32 116.062 228.218M60.0479 231.75C57.7712 233.487 53.8089 238.189 56.174 243.1C58.5392 248.01 65.5299 246.521 67.9251 245.41C68.284 245.898 68.8099 246.533 69.4754 247.238M60.0479 231.75C69.9949 223.423 75.1795 210.947 76.5285 205.75C79.5895 209.475 86.0253 209.278 88.8606 208.713C95.3239 222.599 109.892 224.941 116.367 224.377M60.0479 231.75C58.3131 229.439 57.1284 226.932 56.4165 224.377M251.294 293.237C241.089 297.015 210.473 325.292 196.441 338.958C187.004 323.995 160.866 297.02 147.838 284.597M251.294 293.237L270.004 302.206M251.294 293.237L264.902 278.142C264.477 275.178 264.477 267.558 269.154 263.748C272.896 260.7 276.525 263.124 278.084 264.817M131.807 341.922L146.502 363.936C147.772 365.8 149.076 367.55 150.406 369.193M150.406 369.193C168.164 391.118 190.657 393.808 200.268 392.203C233.265 384.839 263.342 330.495 274.256 304.244L270.004 302.206M150.406 369.193V387.217V418.905M153.493 420.24L150.947 437.35M153.493 420.24C154.333 419.175 155.275 417.914 156.251 416.607C159.618 412.1 163.382 407.059 164.701 407.716C167.795 409.256 166.938 411.291 165.038 415.804C164.929 416.063 164.816 416.33 164.701 416.606C167.961 415.618 174.481 414.404 174.481 417.452C174.481 420.501 173.064 421.545 172.355 421.686C173.489 422.109 175.757 423.379 175.757 425.073C175.757 426.766 173.205 428.036 171.93 428.459C173.205 428.742 175.757 429.899 175.757 432.27C175.757 434.64 173.489 434.951 172.355 434.81C172.922 435.092 173.971 436.503 173.631 439.89C173.205 444.123 158.454 442.43 150.947 437.35M153.493 420.24C152.538 419.821 151.506 419.375 150.406 418.905M65.0475 335.995C72.1463 353.606 77.0767 383.127 78.6546 395.686C98.8069 398.307 133.071 411.5 150.406 418.905M270.004 302.206L274.256 297.192C281.06 297.192 295.687 293.805 299.769 280.258C304.872 263.325 290.84 257.398 287.013 262.478C285.653 264.51 286.446 266.147 287.013 266.711C286.446 266.26 285.207 265.663 284.037 266.138M277.659 281.952C277.392 281.465 277.038 280.662 276.808 279.784M275.107 285.053C274.944 284.872 274.708 284.721 274.419 284.597M266.178 285.053C267.026 284.631 268.49 284.316 270.004 284.194M270.004 284.194C276.099 268.912 289.055 238.432 292.116 238.771C295.943 239.194 295.093 242.157 292.116 248.931C289.735 254.35 285.738 262.66 284.037 266.138M270.004 284.194C271.666 284.06 273.388 284.157 274.419 284.597M284.037 266.138C283.745 266.256 283.458 266.441 283.187 266.711C281.826 268.066 282.62 270.098 283.187 270.945C281.911 270.239 279.189 269.251 278.509 270.945C277.829 272.638 278.793 275.319 279.36 276.448C278.793 275.932 277.489 275.294 276.808 276.872C276.448 277.708 276.549 278.794 276.808 279.784M276.808 279.784L274.419 284.597M116.367 224.377C116.323 225.612 116.224 226.901 116.062 228.218M116.062 228.218C119.225 224.69 124.409 215.233 118.626 205.75C111.397 193.896 99.9958 184.538 79.931 189.239C72.7022 190.933 67.9251 196.013 66.7491 200.67C58.7901 202.038 53.422 213.63 56.4165 224.377M56.4165 224.377L33.5819 280.238M33.5819 280.238C28.2576 282.928 23.9297 286.357 21.675 290.697C21.3392 291.343 21.0118 292.197 20.6943 293.237M33.5819 280.238C36.5036 278.762 39.7254 277.508 43.0693 276.448M69.4754 247.238C71.4993 249.38 74.8147 252.168 78.6546 253.443L76.5285 271.223C73.8087 271.223 69.7565 271.436 65.0475 271.969M69.4754 247.238L65.0475 271.969M65.0475 271.969C60.1225 272.527 54.4789 273.435 48.8898 274.816M147.838 284.597C145.016 281.907 142.809 279.899 141.52 278.843C138.573 276.431 131.628 275.013 124.213 274.219M147.838 284.597C142.897 286.924 134.422 290.277 124.213 293.237M20.6943 293.237C14.981 311.957 12.5216 391.03 23.8011 406.27C35.7073 422.357 72.7567 453.854 150.406 440.984L150.947 437.35M20.6943 293.237C26.0029 294.363 36.2929 296.142 48.8898 297.557M124.213 293.237V274.219M124.213 293.237C121.695 293.967 119.07 294.674 116.367 295.335M124.213 274.219C122.362 274.021 120.481 273.862 118.626 273.736M118.626 273.736L116.367 295.335M116.367 295.335C105.606 297.967 93.6004 299.881 82.0571 299.732C73.2496 299.618 64.5061 299.076 56.4165 298.328M56.4165 298.328L48.8898 274.816M56.4165 298.328C53.8346 298.09 51.3193 297.83 48.8898 297.557M48.8898 274.816C46.9319 275.3 44.9807 275.843 43.0693 276.448M43.0693 276.448L48.8898 297.557" stroke="white" stroke-width="2" stroke-linejoin="round"/>
<path d="M72.5755 35.0293L76.5623 35.0293L84.8208 110.21H70.582L72.5755 35.0293Z" fill="white"/>
<path d="M25.873 115.904L30.7142 115.904L43.5291 192.509H25.873V115.904Z" fill="white"/>
<path d="M36.4062 115.904L77.9833 115.904V164.886L45.519 166.879L36.4062 115.904Z" fill="white"/>
<path d="M45.5234 172.291L98.4915 169.443L101.624 192.225H49.5103L45.5234 172.291Z" fill="white"/>
<path d="M104.471 168.872L140.637 166.879L136.365 192.224H107.603L104.471 168.872Z" fill="white"/>
<path d="M146.902 166.881L187.055 164.033V192.226H142.061L146.902 166.881Z" fill="white"/>
<path d="M192.751 164.032L213.54 162.893L228.633 192.224H192.182L192.751 164.032Z" fill="white"/>
<path d="M106.467 115.904L170.826 116.189L162.852 159.76L122.414 162.323L106.467 115.904Z" fill="white"/>
<path d="M176.518 115.904H220.658L210.122 137.547H172.531L176.518 115.904Z" fill="white"/>
<path d="M171.395 143.242H209.554L211.833 156.911L168.547 159.759L171.395 143.242Z" fill="white"/>
<path d="M215.25 143.242H297.55V151.785L217.813 156.627L215.25 143.242Z" fill="white"/>
<path d="M226.639 115.904H297.263V137.547H216.387L226.639 115.904Z" fill="white"/>
<path d="M82.543 35.0293L114.723 35.0293L108.173 110.21H90.5167L82.543 35.0293Z" fill="white"/>
<path d="M118.139 59.2363L138.643 65.5014L144.053 110.496H113.867L118.139 59.2363Z" fill="white"/>
<path d="M262.52 80.0234L296.977 81.7321V110.21L261.096 110.779L262.52 80.0234Z" fill="white"/>
<path d="M120.706 35.0293L193.039 35.0293L186.204 70.6261L170.257 70.0566L118.713 53.2549L120.706 35.0293Z" fill="white"/>
<rect x="26.373" y="34.5" width="270.731" height="157.51" stroke="white"/>
<path fill-rule="evenodd" clip-rule="evenodd" d="M67.4427 35.0312H26.1504V110.212H65.4493L67.4427 35.0312ZM55.7118 79.8591C55.7118 85.1829 48.5068 93.7011 48.5068 93.7011C48.5068 93.7011 41.3018 85.1829 41.3018 79.8591C41.3018 76.5267 44.5276 73.1155 48.5068 73.1155C52.486 73.1155 55.7118 76.5267 55.7118 79.8591ZM51.5963 79.8044C51.5963 81.794 49.9834 83.4069 47.9938 83.4069C46.0042 83.4069 44.3913 81.794 44.3913 79.8044C44.3913 77.8148 46.0042 76.2019 47.9938 76.2019C49.9834 76.2019 51.5963 77.8148 51.5963 79.8044ZM297.54 157.769L219.796 162.04L234.605 192.226H297.54V157.769ZM265.69 173.523C265.69 178.846 258.485 187.365 258.485 187.365C258.485 187.365 251.28 178.846 251.28 173.523C251.28 170.19 254.506 166.779 258.485 166.779C262.464 166.779 265.69 170.19 265.69 173.523ZM261.574 173.469C261.574 175.459 259.961 177.071 257.972 177.071C255.982 177.071 254.369 175.459 254.369 173.469C254.369 171.479 255.982 169.866 257.972 169.866C259.961 169.866 261.574 171.479 261.574 173.469ZM83.9632 115.906H100.765L116.712 162.609L83.9632 164.318V115.906ZM98.9481 158.545C98.9481 158.545 106.153 150.026 106.153 144.703C106.153 141.37 102.927 137.959 98.9481 137.959C94.9689 137.959 91.7431 141.37 91.7431 144.703C91.7431 150.026 98.9481 158.545 98.9481 158.545ZM98.431 148.252C100.421 148.252 102.033 146.64 102.033 144.65C102.033 142.66 100.421 141.047 98.431 141.047C96.4414 141.047 94.8285 142.66 94.8285 144.65C94.8285 146.64 96.4414 148.252 98.431 148.252ZM167.404 75.1818L144.052 67.4928L149.748 110.494H181.927L197.305 76.8904L167.404 75.1818ZM179.23 91.1791C179.23 96.5029 172.025 105.021 172.025 105.021C172.025 105.021 164.82 96.5029 164.82 91.1791C164.82 87.8467 168.046 84.4355 172.025 84.4355C176.005 84.4355 179.23 87.8467 179.23 91.1791ZM175.113 91.1254C175.113 93.115 173.5 94.7279 171.51 94.7279C169.521 94.7279 167.908 93.115 167.908 91.1254C167.908 89.1358 169.521 87.5229 171.51 87.5229C173.5 87.5229 175.113 89.1358 175.113 91.1254Z" fill="white"/>
<path fill-rule="evenodd" clip-rule="evenodd" d="M296.976 35.0312H199.013L191.894 70.9129L296.976 76.0388V35.0312ZM256.537 79.7409L203 77.1779L188.191 110.497H255.113L256.537 79.7409ZM235.846 106.051C235.846 106.051 243.051 97.5328 243.051 92.2089C243.051 88.8766 239.825 85.4653 235.846 85.4653C231.867 85.4653 228.641 88.8766 228.641 92.2089C228.641 97.5328 235.846 106.051 235.846 106.051ZM286.278 51.0383C286.278 56.3621 279.073 64.8803 279.073 64.8803C279.073 64.8803 271.868 56.3621 271.868 51.0383C271.868 47.7059 275.093 44.2947 279.073 44.2947C283.052 44.2947 286.278 47.7059 286.278 51.0383ZM238.934 92.1561C238.934 94.1457 237.321 95.7586 235.332 95.7586C233.342 95.7586 231.729 94.1457 231.729 92.1561C231.729 90.1665 233.342 88.5536 235.332 88.5536C237.321 88.5536 238.934 90.1665 238.934 92.1561ZM278.561 54.5869C280.55 54.5869 282.163 52.974 282.163 50.9844C282.163 48.9948 280.55 47.3819 278.561 47.3819C276.571 47.3819 274.958 48.9948 274.958 50.9844C274.958 52.974 276.571 54.5869 278.561 54.5869Z" fill="white"/>
</g>
<defs>
<clipPath id="clip0_34_3965">
<rect width="324" height="434" fill="white"/>
</clipPath>
</defs>
</svg>
