<svg width="324" height="434" viewBox="0 0 324 434" fill="none" xmlns="http://www.w3.org/2000/svg">
<g clip-path="url(#clip0_34_3875)">
<path d="M40 1.5L284 1.5C305.263 1.5 322.5 18.737 322.5 40L322.5 81.8205L322.5 404.75C322.5 420.076 310.076 432.5 294.75 432.5L40 432.5C18.737 432.5 1.5 415.263 1.5 394L1.5 371.154L1.5 40C1.5 18.737 18.737 1.5 40 1.5Z" fill="black" fill-opacity="0.38" stroke="white" stroke-width="3"/>
<path d="M206.313 232.619C209.861 232.619 210.305 239.71 204.983 238.823C199.661 237.937 201.878 232.619 206.313 232.619Z" fill="white"/>
<path d="M208.974 201.596C211.635 201.596 212.966 208.687 207.644 207.801C202.322 206.914 205.87 201.596 208.974 201.596Z" fill="white"/>
<path d="M212.079 169.244C214.739 169.244 216.07 176.335 210.748 175.449C205.426 174.562 208.974 169.244 212.079 169.244Z" fill="white"/>
<path d="M203.205 140.895C203.5 145.917 204.096 156.037 204.096 156.392C202.962 156.413 201.17 156.476 199.661 156.561C200.992 158.573 205.518 162.508 212.966 162.153C220.413 161.799 226.121 159.197 228.044 157.941C227.852 157.43 227.703 156.918 227.601 156.406C227.53 156.05 227.473 155.709 227.429 155.381C225.507 155.23 223.763 155.126 222.275 155.062V141.338C223.638 141.229 224.813 140.934 225.827 140.489C229.785 138.754 231.284 134.745 231.955 130.688C232.129 129.067 231.944 124.849 229.818 120.938C227.161 116.049 226.714 118.279 224.496 115.62C222.279 112.96 225.827 109.858 224.496 105.87C223.166 101.881 219.174 102.767 216.957 101.438C215.183 100.374 212.963 98.3449 212.075 97.4632C199.302 97.8178 194.926 108.543 194.335 113.861C192.122 113.42 187.689 114.747 187.687 119.179C187.685 123.611 191.378 125.827 193.448 125.827C192.738 137.172 199.657 139.861 203.205 140.895Z" fill="white"/>
<path d="M80.8052 167.028C77.4051 163.631 69.9839 154.531 67.5004 145.313C64.3959 133.79 59.961 143.54 62.622 149.301C56.8565 144.869 45.1482 136.981 44.4387 140.881C44.4387 141.944 45.03 143.392 45.3256 143.983C44.2908 142.358 41.7777 139.374 40.0037 140.438C39.4439 140.773 39.2522 141.177 39.289 141.595C40.1782 142.219 40.9316 143.259 41.3342 143.983C40.5247 143.477 39.369 142.501 39.289 141.595C38.5455 141.072 37.707 140.84 36.8991 141.324C35.1252 142.388 37.047 145.017 38.2296 146.199C36.8991 145.903 34.4154 145.933 35.125 148.415C36.012 151.517 36.8987 156.392 56.8559 167.471L64.8388 177.221L80.8052 167.028Z" fill="white"/>
<path d="M223.609 295.107L216.957 276.05C212.843 274.841 209.527 274.114 206.856 273.738C194.844 272.05 195.89 277.487 196.113 278.266C197 281.368 201.878 281.221 204.096 280.925C202.47 281.516 199.217 283.23 199.217 285.357C199.217 287.484 204.243 286.834 206.757 286.243C205.722 287.13 203.83 289.257 204.539 290.675C205.249 292.093 208.087 291.561 209.861 291.118C208.531 292.005 206.735 294.627 208.531 297.766C209.448 299.37 212.182 299.236 215.264 298.407C218.143 297.631 221.324 296.249 223.609 295.107Z" fill="white"/>
<path d="M153.537 229.073C163.117 226.237 169.355 234.982 171.277 239.71L179.718 258.766C181.921 257.437 182.808 255.221 183.251 253.891C183.582 254.303 184.289 254.863 185.282 255.092C182.376 248.07 179.12 240.144 177.93 237.05C175.95 231.907 169.022 220.052 156.198 221.668C154.658 221.862 153.032 222.251 151.32 222.869C138.141 227.624 136.747 237.513 138.408 246.554C138.759 248.465 139.247 250.339 139.789 252.118C141.041 256.23 142.293 259.188 143.575 261.166C145.47 264.093 147.429 264.878 149.546 264.084C151.763 262.755 151.32 260.982 147.772 252.118C147.328 251.009 146.898 249.872 146.508 248.724C145.606 246.064 144.923 243.349 144.795 240.793C144.538 235.644 146.536 231.146 153.537 229.073Z" fill="white"/>
<path d="M154.424 304.835L149.989 432.492H199.217L206.757 366.015L228.044 432.492H252.312L190.987 312.606C177.004 311.12 164.376 308.047 154.424 304.835Z" fill="white"/>
<path d="M261.182 432.492H279.046L263.08 307.453C253.816 309.542 239.762 311.769 220.261 313.069L261.182 432.492Z" fill="white"/>
<path d="M80.8052 167.028C89.3202 169.156 110.963 189.187 120.72 198.937C125.598 192.733 155.312 169.244 167.73 163.04C176.227 158.794 190.737 157.063 199.661 156.561M80.8052 167.028C77.4051 163.631 69.9839 154.531 67.5004 145.313C64.3959 133.79 59.961 143.54 62.622 149.301C56.8565 144.869 45.1482 136.981 44.4387 140.881C44.4387 141.944 45.03 143.392 45.3256 143.983C44.2908 142.358 41.7777 139.374 40.0037 140.438C39.4439 140.773 39.2522 141.177 39.289 141.595M80.8052 167.028L64.8388 177.221M64.8388 177.221L56.8559 167.471C36.8987 156.392 36.012 151.517 35.125 148.415C34.4154 145.933 36.8991 145.903 38.2296 146.199C37.047 145.017 35.1252 142.388 36.8991 141.324C37.707 140.84 38.5455 141.072 39.289 141.595M64.8388 177.221C78.8832 202.039 109.721 252.03 120.72 253.448C126.522 254.196 132.909 250.866 138.408 246.554M271.507 279.596L275.942 303.527C274.013 304.491 269.81 305.935 263.08 307.453M271.507 279.596C281.855 274.278 302.64 260.45 302.995 247.687C303.312 236.269 289.47 202.811 277.423 181.669M271.507 279.596L223.609 295.107M223.609 295.107L216.957 276.05M223.609 295.107C221.324 296.249 218.143 297.631 215.264 298.407M216.957 276.05C228.488 263.641 259.532 242.28 268.402 238.38M216.957 276.05C212.843 274.841 209.527 274.114 206.856 273.738M60.8473 151.96C60.2558 152.994 59.4276 155.949 60.8473 159.494M190.247 114.654C188.917 100.046 204.092 92.5743 206.313 91.6879C205.426 87.2562 206.047 77.8608 215.626 75.7335C227.601 73.0744 227.157 73.5176 239.575 89.0289C251.993 104.54 256.871 99.2219 258.645 108.085C260.419 116.949 257.758 124.483 259.976 129.801C262.193 135.119 272.394 139.537 276.385 147.972C280.376 156.406 277.716 155.506 279.046 159.051C280.376 162.596 285.698 162.596 284.368 169.244C283.037 175.892 283.214 186.822 258.645 181.653C241.793 178.108 242.676 173.233 237.801 169.244C233.488 165.715 229.517 161.861 228.044 157.941M225.827 140.489C224.813 140.934 223.638 141.229 222.275 141.338V155.062C223.763 155.126 225.507 155.23 227.429 155.381M225.827 140.489C226.418 142.392 228.044 144.869 228.044 147.972C228.044 149.653 226.918 151.616 227.429 155.381M225.827 140.489C229.785 138.754 231.284 134.745 231.955 130.688C232.129 129.067 231.944 124.849 229.818 120.938C227.161 116.049 226.714 118.279 224.496 115.62C222.279 112.96 225.827 109.858 224.496 105.87C223.166 101.881 219.174 102.767 216.957 101.438C215.183 100.374 212.963 98.3449 212.075 97.4632C199.302 97.8178 194.926 108.543 194.335 113.861C192.122 113.42 187.689 114.747 187.687 119.179C187.685 123.611 191.378 125.827 193.448 125.827C192.738 137.172 199.657 139.861 203.205 140.895C203.5 145.917 204.096 156.037 204.096 156.392C202.962 156.413 201.17 156.476 199.661 156.561M227.429 155.381C227.473 155.709 227.53 156.05 227.601 156.406C227.703 156.918 227.852 157.43 228.044 157.941M154.424 304.835C146.686 302.337 140.566 299.754 136.685 297.766C137.495 289.267 140.462 274.782 143.575 261.166M154.424 304.835L149.989 432.492H199.217L206.757 366.015L228.044 432.492M154.424 304.835C164.376 308.047 177.004 311.12 190.987 312.606M228.044 432.492H279.046M228.044 432.492H252.312M279.046 432.492L263.08 307.453M279.046 432.492H261.182M263.08 307.453C253.816 309.542 239.762 311.769 220.261 313.069M138.408 246.554C138.759 248.465 139.247 250.339 139.789 252.119C141.041 256.23 142.293 259.188 143.575 261.166M138.408 246.554C136.747 237.513 138.141 227.624 151.32 222.869C153.032 222.251 154.658 221.862 156.198 221.668M144.795 240.793C146.916 238.625 148.699 236.529 149.989 234.835C149.033 238.509 147.818 243.328 146.508 248.724M144.795 240.793C144.538 235.644 146.536 231.146 153.537 229.073C163.117 226.237 169.355 234.982 171.277 239.71L179.718 258.766M144.795 240.793C144.923 243.349 145.606 246.064 146.508 248.724M146.508 248.724C146.898 249.872 147.328 251.009 147.772 252.119C151.32 260.982 151.763 262.755 149.546 264.084C147.429 264.878 145.47 264.093 143.575 261.166M179.718 258.766C176.891 260.184 174.391 259.357 173.495 258.766C173.347 259.566 172.608 261.395 170.834 262.312C169.06 263.228 166.547 262.693 165.512 262.312L190.987 312.606M179.718 258.766C181.921 257.437 182.808 255.221 183.251 253.891C183.582 254.303 184.289 254.863 185.282 255.092M261.182 432.492H252.312M261.182 432.492L220.261 313.069M252.312 432.492L190.987 312.606M185.282 255.092C186.068 255.273 187.033 255.248 188.13 254.778C190.613 253.714 191.53 252.266 191.678 251.675C191.974 251.971 193.008 252.473 194.782 252.119C196.556 251.764 197.887 249.708 198.33 248.724L206.856 273.738M185.282 255.092C182.376 248.07 179.12 240.144 177.93 237.05C175.95 231.907 169.022 220.052 156.198 221.668M206.856 273.738C194.844 272.05 195.89 277.487 196.113 278.266C197 281.368 201.878 281.221 204.096 280.925C202.47 281.516 199.217 283.23 199.217 285.357C199.217 287.484 204.243 286.834 206.757 286.243C205.722 287.13 203.83 289.257 204.539 290.675C205.249 292.093 208.087 291.561 209.861 291.118C208.531 292.005 206.735 294.627 208.531 297.766C209.448 299.37 212.182 299.236 215.264 298.407M215.264 298.407L220.261 313.069M199.661 156.561C200.992 158.573 205.518 162.508 212.966 162.153C220.413 161.799 226.121 159.197 228.044 157.941M204.096 168.358C201.287 175.892 195.581 201.064 195.226 241.482M161.077 201.596L156.198 221.668M39.289 141.595C40.1782 142.219 40.9316 143.259 41.3342 143.983C40.5247 143.477 39.369 142.501 39.289 141.595ZM212.079 169.244C214.739 169.244 216.07 176.335 210.748 175.449C205.426 174.562 208.974 169.244 212.079 169.244ZM208.974 201.596C211.635 201.596 212.966 208.687 207.644 207.801C202.322 206.914 205.87 201.596 208.974 201.596ZM206.313 232.619C209.861 232.619 210.305 239.71 204.983 238.823C199.661 237.937 201.878 232.619 206.313 232.619Z" stroke="white" stroke-width="2" stroke-linejoin="round"/>
<path d="M113.312 103.905C113.312 109.967 110.209 111.145 107.823 111.145C105.436 111.145 102.334 109.967 102.334 103.905C102.334 97.8416 107.823 89.1895 107.823 89.1895C107.823 89.1895 113.312 97.8416 113.312 103.905Z" fill="white"/>
<path d="M79.4646 63.6712C79.4646 71.2499 75.5865 72.7221 72.6034 72.7221C69.6203 72.7221 65.7422 71.2499 65.7422 63.6712C65.7422 56.0925 72.6034 45.2773 72.6034 45.2773C72.6034 45.2773 79.4646 56.0925 79.4646 63.6712Z" fill="white"/>
<path d="M310 54.2013C310 60.5168 306.639 61.7437 304.054 61.7437C301.468 61.7437 298.107 60.5168 298.107 54.2013C298.107 47.8857 304.054 38.873 304.054 38.873C304.054 38.873 310 47.8857 310 54.2013Z" fill="white"/>
<path d="M135.267 29.4535C135.267 31.9798 133.975 32.4705 132.98 32.4705C131.986 32.4705 130.693 31.9798 130.693 29.4535C130.693 26.9273 132.98 23.3223 132.98 23.3223C132.98 23.3223 135.267 26.9273 135.267 29.4535Z" fill="white"/>
<path d="M148.99 94.4047C148.99 96.9309 147.697 97.4217 146.703 97.4217C145.709 97.4217 144.416 96.9309 144.416 94.4047C144.416 91.8785 146.703 88.2734 146.703 88.2734C146.703 88.2734 148.99 91.8785 148.99 94.4047Z" fill="white"/>
<path d="M293.533 123.68C293.533 126.206 292.24 126.697 291.246 126.697C290.252 126.697 288.959 126.206 288.959 123.68C288.959 121.154 291.246 117.549 291.246 117.549C291.246 117.549 293.533 121.154 293.533 123.68Z" fill="white"/>
<path d="M54.7636 114.532C54.7636 117.058 53.4709 117.549 52.4765 117.549C51.4821 117.549 50.1895 117.058 50.1895 114.532C50.1895 112.005 52.4765 108.4 52.4765 108.4C52.4765 108.4 54.7636 112.005 54.7636 114.532Z" fill="white"/>
<path d="M172.776 110.892C172.776 114.934 170.707 115.719 169.116 115.719C167.525 115.719 165.457 114.934 165.457 110.892C165.457 106.85 169.116 101.082 169.116 101.082C169.116 101.082 172.776 106.85 172.776 110.892Z" fill="white"/>
<path d="M199.307 34.0464C199.307 38.0883 197.239 38.8736 195.648 38.8736C194.057 38.8736 191.988 38.0883 191.988 34.0464C191.988 30.0044 195.648 24.2363 195.648 24.2363C195.648 24.2363 199.307 30.0044 199.307 34.0464Z" fill="white"/>
<path d="M130.694 170.357C130.694 174.399 128.625 175.184 127.034 175.184C125.443 175.184 123.375 174.399 123.375 170.357C123.375 166.315 127.034 160.547 127.034 160.547C127.034 160.547 130.694 166.315 130.694 170.357Z" fill="white"/>
<path d="M270.662 75.2144C270.662 79.2563 268.594 80.0415 267.003 80.0415C265.412 80.0415 263.344 79.2563 263.344 75.2144C263.344 71.1724 267.003 65.4043 267.003 65.4043C267.003 65.4043 270.662 71.1724 270.662 75.2144Z" fill="white"/>
<path d="M26.4038 30.076C26.4038 33.6127 24.594 34.2998 23.2019 34.2998C21.8098 34.2998 20 33.6127 20 30.076C20 26.5393 23.2019 21.4922 23.2019 21.4922C23.2019 21.4922 26.4038 26.5393 26.4038 30.076Z" fill="white"/>
</g>
<defs>
<clipPath id="clip0_34_3875">
<rect width="324" height="434" fill="white"/>
</clipPath>
</defs>
</svg>
