<svg width="324" height="434" viewBox="0 0 324 434" fill="none" xmlns="http://www.w3.org/2000/svg">
<g clip-path="url(#clip0_34_3912)">
<path d="M40 1.5L284 1.5C305.263 1.5 322.5 18.737 322.5 40L322.5 81.8205L322.5 128.385L322.5 394C322.5 415.263 305.263 432.5 284 432.5L40 432.5C18.737 432.5 1.5 415.263 1.5 394L1.5 40C1.5 18.737 18.737 1.5 40 1.5Z" fill="black" fill-opacity="0.38" stroke="white" stroke-width="3"/>
<path d="M151.631 161.036C143.198 174.853 148.888 186.952 152.501 190.203C155.312 185.191 163.799 176.747 169.157 178.541C174.516 180.335 174.586 184.199 176.059 186.637C178.736 185.96 185.864 185.053 188.759 185.717C192.768 186.637 201.357 208.175 199.349 212.239C197.743 215.49 196.27 217.386 195.735 217.928L197.341 222.804L206.979 220.773C215.813 211.832 217.419 199.641 213.002 189.076C208.585 178.51 194.53 170.382 187.704 168.351C186.499 164.016 182.805 155.022 177.665 153.721C172.525 152.421 170.437 156.972 170.035 159.41C166.354 156.159 156.851 152.908 151.631 161.036Z" fill="white"/>
<path d="M153.973 257.752C147.546 255.314 146.209 241.226 146.342 235.808C133.76 235.266 107.378 235.402 97.3446 244.748C84.3699 256.835 80.7505 277.552 84.768 315.345C87.4285 340.372 95.6847 352.845 102.566 358.328C106.735 361.649 112.068 362.297 119.037 361.377C123.761 358.245 128.921 354.716 132.757 349.592C134.655 347.057 136.938 343.903 138.379 341.465C139.82 339.027 142.783 334.069 144.631 330.493C146.48 326.917 145.402 326.023 144.631 326.023C131.622 322.122 126.3 306.788 125.265 299.609C135.036 284.565 146.742 267.813 153.973 257.752Z" fill="white"/>
<path d="M170.035 274.82C167.625 276.562 162.272 277.935 159.595 278.071C156.796 290.417 152.035 309.03 144.631 326.023C145.402 326.023 146.48 326.917 144.631 330.493C142.783 334.069 139.82 339.027 138.379 341.465C136.938 343.903 134.655 347.057 132.757 349.592C143.615 347.731 162.549 344.008 178.067 343.002C179.403 345.605 182.076 351.868 182.076 356.094C182.076 360.321 181.541 366.707 181.273 369.372C181.273 370.229 182.558 371.78 187.698 371.13C189.946 370.846 193.404 371.379 197.008 370.724C201.643 369.881 206.64 369.951 209.502 369.372C216.548 368.043 229.945 363.137 231.776 360.564C239.004 350.405 236.676 284.844 229.994 271.837C221.457 255.219 193.993 246.242 182.483 241.44C181.331 241.874 179.814 242.201 178.067 242.379C177.676 242.418 177.274 242.451 176.862 242.475C178.067 242.555 180.637 243.123 181.279 244.748C181.922 246.374 181.011 247.322 180.476 247.593C181.145 247.728 182.644 248.406 183.286 250.031C183.928 251.657 182.216 252.876 181.279 253.282C182.216 253.282 184.09 253.77 184.09 255.72C184.733 259.947 179.004 263.889 176.059 265.333C174.42 269.173 171.881 273.486 170.035 274.82Z" fill="white"/>
<path d="M136.298 363.003C131.077 376.413 125.455 371.943 113.81 370.724C113.542 372.349 111.561 376.738 107.385 376.413C106.452 379.196 106.388 383.518 111.474 383.124C112.825 383.019 114.538 382.582 116.695 381.696C129.545 376.413 192.189 389.01 195.803 385.353C198.694 382.427 197.811 374.754 197.008 370.724C193.404 371.379 189.946 370.846 187.698 371.13C182.558 371.78 181.273 370.229 181.273 369.372C163.978 369.321 145.877 367.184 136.298 363.003Z" fill="white"/>
<path d="M101.034 432.492H149.623H195.803C196.619 424.58 197.683 408.786 197.008 396.059L109.109 391.449C105.796 403.667 101.588 421.445 101.034 432.492Z" fill="white"/>
<path d="M152.501 190.203C148.888 186.952 143.198 174.853 151.631 161.036C156.851 152.908 166.354 156.159 170.035 159.41C170.437 156.972 172.525 152.421 177.665 153.721C182.805 155.022 186.499 164.016 187.704 168.351C194.53 170.382 208.585 178.51 213.002 189.076C217.419 199.641 215.813 211.832 206.979 220.773M152.501 190.203C155.312 185.191 163.799 176.747 169.157 178.541C174.516 180.335 174.586 184.199 176.059 186.637C178.736 185.96 185.864 185.053 188.759 185.717C192.768 186.637 201.357 208.175 199.349 212.239C197.743 215.49 196.27 217.386 195.735 217.928L197.341 222.804L206.979 220.773M152.501 190.203C149.504 194.247 138.379 215.769 152.501 230.119L146.342 235.808M206.979 220.773C208.317 223.482 209.87 229.794 205.372 233.37C200.875 236.946 196.27 233.506 194.53 231.338C191.987 234.047 186.178 239.79 183.286 241.091C183.043 241.214 182.775 241.331 182.483 241.44M146.342 235.808C146.209 241.226 147.546 255.314 153.973 257.752M146.342 235.808C133.76 235.266 107.378 235.402 97.3446 244.748C84.3699 256.835 80.7505 277.552 84.768 315.345C87.4285 340.372 95.6847 352.845 102.566 358.328M153.973 257.752C155.173 251.657 160.893 239.466 160.893 239.466C163.004 235.402 169.152 228.087 176.862 231.338C184.572 234.589 180.878 240.053 178.067 242.379M153.973 257.752C146.742 267.813 135.036 284.565 125.265 299.609M108.59 320.74C109.839 317.58 111.629 314.238 113.81 310.581C115.991 306.923 121.112 300.828 123.046 299.609C124.792 298.508 125.061 298.931 125.265 299.609M177.665 260.19C177.527 261.446 176.916 263.325 176.059 265.333M176.059 265.333C174.42 269.173 171.881 273.486 170.035 274.82C167.625 276.562 162.272 277.935 159.595 278.071C156.796 290.417 152.035 309.03 144.631 326.023M176.059 265.333C179.004 263.889 184.733 259.947 184.09 255.72C184.09 253.77 182.216 253.282 181.279 253.282C182.216 252.876 183.928 251.657 183.286 250.031C182.644 248.406 181.145 247.728 180.476 247.593C181.011 247.322 181.922 246.374 181.279 244.748C180.637 243.123 178.067 242.555 176.862 242.475M176.862 242.475C177.274 242.451 177.676 242.418 178.067 242.379M176.862 242.475C175.012 242.584 172.959 242.535 170.838 242.284C172.043 240.125 174.774 235.971 176.059 236.621M178.067 242.379C179.814 242.201 181.331 241.874 182.483 241.44M182.483 241.44C193.993 246.242 221.457 255.219 229.994 271.837C236.676 284.844 239.004 350.405 231.776 360.564C229.945 363.137 216.548 368.043 209.502 369.372C206.64 369.951 201.643 369.881 197.008 370.724M113.81 370.724C125.455 371.943 131.077 376.413 136.298 363.003C145.877 367.184 163.978 369.321 181.273 369.372M113.81 370.724C113.542 372.349 111.561 376.738 107.385 376.413M113.81 370.724C112.471 370.588 109.553 370.48 108.59 371.13M107.385 376.413C102.165 376.007 97.7475 375.6 100.157 370.724C98.8183 370.588 96.5428 369.505 98.149 366.254C96.9443 365.712 95.0971 363.815 97.3459 360.564C99.5947 357.313 101.763 357.719 102.566 358.328M107.385 376.413C106.452 379.196 106.388 383.518 111.474 383.124M102.566 358.328C106.735 361.649 112.068 362.297 119.037 361.377C123.761 358.245 128.921 354.716 132.757 349.592M132.757 349.592C134.655 347.057 136.938 343.903 138.379 341.465C139.82 339.027 142.783 334.069 144.631 330.493C146.48 326.917 145.402 326.023 144.631 326.023M132.757 349.592C143.615 347.731 162.549 344.008 178.067 343.002M204.564 294.121C203.279 304.2 204.302 324.87 205.372 335.978C201.357 335.301 182.719 340.977 180.47 340.652C178.221 340.327 177.931 342.083 178.067 343.002M125.265 299.609C126.3 306.788 131.622 322.122 144.631 326.023M178.067 343.002C179.403 345.605 182.076 351.868 182.076 356.094C182.076 360.321 181.541 366.707 181.273 369.372M181.273 369.372C181.273 370.229 182.558 371.78 187.698 371.13C189.946 370.846 193.404 371.379 197.008 370.724M195.803 385.353C192.189 389.01 129.545 376.413 116.695 381.696C114.538 382.582 112.825 383.019 111.474 383.124M195.803 385.353C198.694 382.427 197.811 374.754 197.008 370.724M195.803 385.353C196.415 388.399 196.796 392.079 197.008 396.059M111.474 383.124C110.806 385.354 109.989 388.206 109.109 391.449M149.623 432.492H101.034C101.588 421.445 105.796 403.667 109.109 391.449M149.623 432.492H195.803C196.619 424.58 197.683 408.786 197.008 396.059M149.623 432.492C150.426 429.919 152.675 423.308 155.245 417.456M109.109 391.449L197.008 396.059" stroke="white" stroke-width="2"/>
<path d="M175.084 56.8063C177.355 76.6339 162.623 88.6241 154.972 92.1408L156.106 110.61L147.059 94.8374C137.164 94.3388 120.313 88.57 114.131 70.2836C107.949 51.9972 121.915 37.066 133.454 32.4887C144.993 27.9114 172.245 32.0217 175.084 56.8063Z" fill="white"/>
<path fill-rule="evenodd" clip-rule="evenodd" d="M223.375 172.998L240.577 150.924C233.129 134.236 228.613 95.546 270.124 74.291C322.013 47.7222 356.791 115.104 342.913 144.514C329.805 172.29 292.276 194.487 249.789 163.752L223.375 172.998ZM290.215 99.4685C293.853 98.0241 297.292 96.659 299.178 100.482C302.91 108.046 300.29 113.223 292.534 115.724C284.778 118.224 275.725 131.439 279.435 141.61C283.582 152.976 290.65 142.836 289.769 139.144C288.888 135.453 290.315 127.959 297.609 126.219C304.902 124.479 319.094 113.94 315.257 100.548C311.42 87.1567 300.247 80.7176 287.774 84.9935C277.797 88.4141 278.586 95.8562 280.228 99.1496C282.903 102.371 286.655 100.882 290.215 99.4685ZM284.971 151.344C292.851 152.066 293.208 164.337 285.013 164.991C276.817 165.645 277.09 150.623 284.971 151.344Z" fill="white"/>
<path fill-rule="evenodd" clip-rule="evenodd" d="M114.491 142.943C106.844 154.154 84.4977 174.392 56.286 165.661C21.0214 154.748 20.8182 113.698 30.3532 99.2198C39.8882 84.7414 62.0265 68.5075 81.996 75.8993C101.965 83.2912 121.132 108.081 117.96 133.996L135.921 145.969L114.491 142.943ZM85.7065 97.3986C85.7059 101.306 84.9265 101.271 81.0229 101.1C79.117 101.016 76.4663 100.899 72.7978 101.193L73.6307 120.618C81.7291 121.513 89.0124 125.573 89.7948 133.397C90.6231 141.681 89.9173 151.114 76.3144 152.821C76.1653 154.773 75.4199 158.587 73.6307 158.229C71.8416 157.871 72.33 154.646 72.7978 153.078C56.18 153.515 56.605 152.036 57.5268 148.827C57.5478 148.754 57.5691 148.68 57.5904 148.605C58.2907 146.145 62.7845 145.897 67.7496 145.624L67.7507 145.624C68.5279 145.581 69.3168 145.538 70.1044 145.485L68.8087 127.389C60.6602 124.956 51.6092 122.255 50.3712 110.37C49.4074 101.118 57.98 96.4224 66.9215 94.7359C66.7518 92.7907 66.7825 88.9004 68.2633 88.9004C69.7442 88.9004 70.1144 92.4728 70.1144 94.259C78.2095 93.3566 85.7069 94.7914 85.7065 97.3986ZM73.6307 128.927L74.8974 144.958C79.3981 144.163 82.836 142.329 82.191 137.423C81.5747 132.734 78.0891 130.549 73.6307 128.927ZM66.9215 101.876C61.3654 102.845 58.0821 104.819 58.4224 109.923C58.8386 116.166 60.4708 119.885 68.2633 120.371L66.9215 101.876Z" fill="white"/>
</g>
<defs>
<clipPath id="clip0_34_3912">
<rect width="324" height="434" fill="white"/>
</clipPath>
</defs>
</svg>
