<svg width="547" height="160" viewBox="0 0 547 160" fill="none" xmlns="http://www.w3.org/2000/svg">
<path d="M367.434 79.4897H448.001M448.001 79.4897L432.507 63.9805M448.001 79.4897L432.507 94.999" stroke="#242424" stroke-width="4"/>
<path d="M132.179 78.576H136.579V41H132.179V78.576ZM114.447 76.816C121.091 76.816 125.799 71.272 125.799 59.348C125.799 47.424 121.091 41.88 114.447 41.88C107.759 41.88 103.051 47.424 103.051 59.348C103.051 71.272 107.759 76.816 114.447 76.816ZM114.447 72.812C110.443 72.812 107.407 68.896 107.407 59.348C107.407 49.844 110.443 45.884 114.447 45.884C118.363 45.884 121.443 49.844 121.443 59.348C121.443 68.896 118.363 72.812 114.447 72.812ZM179.915 41H175.779V69.204H179.915V41ZM161.215 54.288H166.715V68.544H170.807V41.22H166.715V50.24H161.215V41.66H157.211V48.744H148.983V41.66H144.935V63.396H161.215V54.288ZM148.983 59.832V52.264H157.211V59.832H148.983ZM151.755 74.132V66.828H147.311V78.092H180.839V74.132H151.755ZM221.755 62.472H192.979V56.268H220.699V52.44H192.979V46.28H221.183V42.364H188.623V66.388H221.755V62.472ZM186.115 72.768V76.772H223.647V72.768H186.115ZM267.392 63.528V59.92C264.884 60.976 260.44 61.372 255.468 61.372V56.884C261.012 56.312 264.62 53.32 264.62 49.008C264.62 44.212 260.088 41 253.312 41C246.58 41 242.048 44.212 242.048 49.008C242.048 53.32 245.612 56.312 251.156 56.884V61.372H240.772V65.024H254.94C260.308 65.024 265.016 64.584 267.392 63.528ZM274.872 51.34V41H270.516V69.6H274.872V55.432H280.064V51.34H274.872ZM246.316 49.008C246.316 46.236 249 44.432 253.312 44.432C257.624 44.432 260.352 46.236 260.352 49.008C260.352 51.78 257.624 53.584 253.312 53.584C249 53.584 246.316 51.78 246.316 49.008ZM247.856 67.928H243.456V78.092H275.884V74.308H247.856V67.928ZM311.256 72.812V65.508H318.736V61.636H289.96V55.784H318.164V42.364H285.604V46.236H313.852V52.044H285.604V65.508H292.468V72.812H283.096V76.772H320.628V72.812H311.256ZM296.824 65.508H306.9V72.812H296.824V65.508Z" fill="#242424"/>
<path d="M186.969 103.156H185.492V111.57H180.688V112.812H185.492V123.852H186.969V103.156ZM170.023 118.625L170.891 119.75C173.234 118.578 175.297 116.094 176.176 113.082C177.078 115.941 179.176 118.285 181.531 119.398L182.398 118.227C179.434 116.879 176.879 113.516 176.867 109.953V108.031H181.719V106.812H176.914V103.484H175.438V106.812H170.539V108.031H175.438V109.953C175.438 113.68 172.953 117.219 170.023 118.625ZM200.07 103.625C195.605 103.637 192.828 105.066 192.828 107.516C192.828 109.941 195.605 111.348 200.07 111.359C204.559 111.348 207.312 109.941 207.312 107.516C207.312 105.066 204.559 103.637 200.07 103.625ZM190.672 114.57H209.516V113.328H190.672V114.57ZM193.016 123.523H207.172V116.82H193.016V123.523ZM194.352 107.516C194.328 105.863 196.59 104.844 200.07 104.844C203.551 104.844 205.812 105.863 205.812 107.516C205.812 109.133 203.551 110.141 200.07 110.164C196.59 110.141 194.328 109.133 194.352 107.516ZM194.469 122.305V118.016H205.742V122.305H194.469ZM220.812 104.562C216.523 104.586 213.336 106.812 213.336 110.188C213.336 113.562 216.523 115.789 220.812 115.766C225.125 115.789 228.312 113.562 228.312 110.188C228.312 106.812 225.125 104.586 220.812 104.562ZM211.414 120.992H230.352V119.727H211.414V120.992ZM214.719 110.188C214.719 107.609 217.344 105.781 220.812 105.781C224.293 105.781 226.906 107.609 226.906 110.188C226.906 112.754 224.293 114.559 220.812 114.547C217.344 114.559 214.719 112.754 214.719 110.188ZM251.094 119.914H242.305V115.742H249.125V114.5H236.047V110.797H248.633V104.75H234.523V105.992H247.18V109.555H234.594V115.742H240.828V119.914H232.156V121.18H251.094V119.914Z" fill="#242424"/>
</svg>
