<svg width="64" height="64" viewBox="0 0 64 64" fill="none" xmlns="http://www.w3.org/2000/svg">
<path fill-rule="evenodd" clip-rule="evenodd" d="M32 62C48.5685 62 62 48.5685 62 32C62 15.4315 48.5685 2 32 2C15.4315 2 2 15.4315 2 32C2 48.5685 15.4315 62 32 62ZM43.5797 25.75H37.5271C37.275 23.4314 35.3625 22.0806 32.2732 22.0806C29.0788 22.0806 27.2925 23.4919 27.2715 25.4274C27.2504 27.5443 29.5201 28.4919 32.1471 29.0564L34.8792 29.7016C40.0911 30.8508 43.979 33.3911 44 38.2499C43.979 43.5927 39.6497 47.0201 32.2312 46.9999C24.8757 47.0201 20.1891 43.754 20 37.4838H26.1366C26.3468 40.4273 28.7846 41.9193 32.1471 41.9193C35.4676 41.9193 37.6112 40.4273 37.6112 38.2499C37.6112 36.254 35.7198 35.3266 32.3993 34.5403L29.0788 33.7741C23.951 32.5645 20.7986 30.1048 20.7986 25.8306C20.7776 20.5282 25.6532 17 32.3152 17C39.0613 17 43.4956 20.5887 43.5797 25.75Z" fill="white"/>
<circle cx="32" cy="32" r="30" stroke="white" stroke-width="3"/>
</svg>
