<svg width="64" height="64" viewBox="0 0 64 64" fill="none" xmlns="http://www.w3.org/2000/svg">
<circle cx="32.0937" cy="32" r="30" stroke="white" stroke-width="3"/>
<path fill-rule="evenodd" clip-rule="evenodd" d="M32.0937 62C48.6623 62 62.0937 48.5685 62.0937 32C62.0937 15.4315 48.6623 2 32.0937 2C15.5252 2 2.09375 15.4315 2.09375 32C2.09375 48.5685 15.5252 62 32.0937 62ZM35.8595 37.6403L35.8595 17L42.0937 17L42.0937 37.6403C42.0937 43.3828 37.9306 47 31.8427 47C26.3616 47 22.0729 44.1798 22.0938 38.3351L28.37 38.3351C28.4118 40.6853 29.8762 42.0545 32.1356 42.0545C34.5415 42.0545 35.8595 40.5422 35.8595 37.6403Z" fill="white"/>
</svg>
