<svg width="64" height="64" viewBox="0 0 64 64" fill="none" xmlns="http://www.w3.org/2000/svg">
<circle cx="32" cy="32" r="30" stroke="white" stroke-width="3"/>
<path fill-rule="evenodd" clip-rule="evenodd" d="M32 62C48.5685 62 62 48.5685 62 32C62 15.4315 48.5685 2 32 2C15.4315 2 2 15.4315 2 32C2 48.5685 15.4315 62 32 62ZM29.0773 47H23V17H34.5064C41.1713 17 45 21.2058 45 27.1105C45 33.0981 41.1105 37.221 34.3444 37.221H29.0773V47ZM29.0773 22.0967V32.2072H33.372C36.9779 32.2072 38.7403 30.1354 38.7201 27.1105C38.7403 24.1271 36.9779 22.1174 33.372 22.0967H29.0773Z" fill="white"/>
</svg>
