<svg width="64" height="64" viewBox="0 0 64 64" fill="none" xmlns="http://www.w3.org/2000/svg">
<circle cx="32" cy="32" r="30" stroke="white" stroke-width="3"/>
<path d="M37.5271 25.75H43.5797C43.4956 20.5887 39.0613 17 32.3152 17C25.6532 17 20.7776 20.5282 20.7986 25.8306C20.7986 30.1048 23.951 32.5645 29.0788 33.7741L32.3993 34.5403C35.7198 35.3266 37.6112 36.254 37.6112 38.2499C37.6112 40.4273 35.4676 41.9193 32.1471 41.9193C28.7846 41.9193 26.3468 40.4273 26.1366 37.4838H20C20.1891 43.754 24.8757 47.0201 32.2312 46.9999C39.6497 47.0201 43.979 43.5927 44 38.2499C43.979 33.3911 40.0911 30.8508 34.8792 29.7016L32.1471 29.0564C29.5201 28.4919 27.2504 27.5443 27.2715 25.4274C27.2925 23.4919 29.0788 22.0806 32.2732 22.0806C35.3625 22.0806 37.275 23.4314 37.5271 25.75Z" fill="white"/>
</svg>
